<svg xmlns="http://www.w3.org/2000/svg">
<defs>
<font id="Gobold" horiz-adv-x="1053" >
  <font-face 
    font-family="Gobold"
    font-weight="400"
    font-stretch="normal"
    units-per-em="2048"
    panose-1="2 0 5 0 0 0 0 0 0 0"
    ascent="1638"
    descent="-410"
    x-height="1731"
    cap-height="1962"
    bbox="-283 -350 2219 2292"
    underline-thickness="150"
    underline-position="-142"
    unicode-range="U+0020-U+F002"
  />
<missing-glyph horiz-adv-x="1934" 
d="M1109 1729c-100.667 -26 -182.667 -73.998 -246 -143.998c-21.333 -24 -50 -63 -86 -117c-40 -60.667 -68.667 -102 -86 -124c-53.333 -66 -96.666 -112.333 -129.999 -139c-54.667 -44 -112 -66 -172 -66c-48.667 0 -90 12.333 -124 37
c-38 27.333 -60.667 65.666 -68 114.999c-1.33301 12 -2 24 -2 36c0 43.333 10.333 83.666 31 120.999c29.333 51.333 70.333 81.666 123 90.999c13.333 2.66699 25.666 4 36.999 4c18 0 34 -3 48 -9c27.333 -12 41.333 -34.667 42 -68c-7.33301 8.66699 -16.333 13 -27 13
c-8.66699 0 -16.667 -3.33301 -24 -10c-8 -8 -12 -16.667 -12 -26c0 -23.333 12 -35 36 -35h2c24.667 0 43.667 13.667 57 41c6.66699 14.667 10 29.334 10 44.001c0 14 -3 28.333 -9 43c-11.333 29.333 -30.333 51 -57 65c-29.333 15.333 -65 23 -107 23
c-10 0 -20.333 -0.333008 -31 -1c-88.667 -7.33301 -160 -44 -214 -110v216h1009zM100 1100c52 -53.333 121.667 -80 209 -80c12 0 24.667 0.666992 38 2c71.333 6 155.666 57.333 252.999 154c26.667 26.667 63.667 66.334 111 119.001
c42.667 47.333 72.334 78.666 89.001 93.999c44 40.667 88.667 61 134 61c24.667 0 49.334 -5.66699 74.001 -17c72.667 -33.333 146.334 -50 221.001 -50c49.333 0 99 7.33301 149 22c98.667 29.333 190.667 83.666 276 162.999
c-10.667 -132.667 -59.334 -255.667 -146.001 -369c-16.667 -21.333 -108.334 -118 -275.001 -290h-66c-33.333 0 -61 13 -83 39l-106 -106h192c-156 -173.333 -247.667 -327.333 -275 -462c-7.33301 -37.333 -11 -72.333 -11 -105c0 -53.333 9.66699 -100.666 29 -141.999

<glyph glyph-name=".notdef" horiz-adv-x="1934" 
d="M1109 1729c-100.667 -26 -182.667 -73.998 -246 -143.998c-21.333 -24 -50 -63 -86 -117c-40 -60.667 -68.667 -102 -86 -124c-53.333 -66 -96.666 -112.333 -129.999 -139c-54.667 -44 -112 -66 -172 -66c-48.667 0 -90 12.333 -124 37
c-38 27.333 -60.667 65.666 -68 114.999c-1.33301 12 -2 24 -2 36c0 43.333 10.333 83.666 31 120.999c29.333 51.333 70.333 81.666 123 90.999c13.333 2.66699 25.666 4 36.999 4c18 0 34 -3 48 -9c27.333 -12 41.333 -34.667 42 -68c-7.33301 8.66699 -16.333 13 -27 13
c-8.66699 0 -16.667 -3.33301 -24 -10c-8 -8 -12 -16.667 -12 -26c0 -23.333 12 -35 36 -35h2c24.667 0 43.667 13.667 57 41c6.66699 14.667 10 29.334 10 44.001c0 14 -3 28.333 -9 43c-11.333 29.333 -30.333 51 -57 65c-29.333 15.333 -65 23 -107 23
c-10 0 -20.333 -0.333008 -31 -1c-88.667 -7.33301 -160 -44 -214 -110v216h1009zM100 1100c52 -53.333 121.667 -80 209 -80c12 0 24.667 0.666992 38 2c71.333 6 155.666 57.333 252.999 154c26.667 26.667 63.667 66.334 111 119.001
c42.667 47.333 72.334 78.666 89.001 93.999c44 40.667 88.667 61 134 61c24.667 0 49.334 -5.66699 74.001 -17c72.667 -33.333 146.334 -50 221.001 -50c49.333 0 99 7.33301 149 22c98.667 29.333 190.667 83.666 276 162.999
c-10.667 -132.667 -59.334 -255.667 -146.001 -369c-16.667 -21.333 -108.334 -118 -275.001 -290h-66c-33.333 0 -61 13 -83 39l-106 -106h192c-156 -173.333 -247.667 -327.333 -275 -462c-7.33301 -37.333 -11 -72.333 -11 -105c0 -53.333 9.66699 -100.666 29 -141.999
c30.667 -66 85.667 -111.667 165 -137h-239v848l45 24v41h-784v191zM387 842.002c62 0 106 -13 132 -39c26.667 -26 40 -70 40 -132v-675h-459v846h287zM629 844.002h44v-848h-44v848zM1419 -3.99805c166.667 38 305 105.667 415 203v-203h-415zM1834 217.002
c-106 -59.333 -205.666 -94.667 -298.999 -106c-19.333 -2 -38 -3 -56 -3c-66 0 -117.667 15.667 -155 47c-36.667 30.667 -55 73.334 -55 128.001c0 20.667 2.66699 43 8 67c21.333 97.333 84.666 213.666 189.999 348.999c50 63.333 86 111 108 143h186v-58h73v-567z
M1620 909.001c82 134 123 278.333 123 433c0 34.667 -2 70 -6 106c-12.667 106.667 -20 159.667 -22 159c5.33301 41.333 45 73.333 119 96v-794h-214zM841.001 1263c-59.333 0 -109.001 -17.333 -149.001 -52c-34.667 -30.667 -56 -68.667 -64 -114
c-2 -11.333 -3 -22.333 -3 -33c0 -30 8.33301 -55.667 25 -77c20.667 -28 50.667 -42 90 -42c6.66699 0 13.334 0.333008 20.001 1c48 5.33301 79 30 93 74c4 12 6 23 6 33c0 29.333 -14.333 54.333 -43 75c-24 17.333 -36 36.333 -36 57c0 4 0.666992 8.33301 2 13
c5.33301 25.333 25 42 59 50v15z" />
    <glyph glyph-name="space" unicode=" " horiz-adv-x="508" 
 />
    <glyph glyph-name="space" unicode="&#xa0;" horiz-adv-x="508" 
 />
    <glyph glyph-name="exclam" unicode="!" horiz-adv-x="565" 
d="M445 1962l-21 -1432h-283l-21 1432h325zM120 325h325v-325h-325v325z" />
    <glyph glyph-name="quotedbl" unicode="&#x22;" horiz-adv-x="968" 
d="M552 1963h296l-34 -652h-228zM120 1963h296l-34 -652h-228z" />
    <glyph glyph-name="numbersign" unicode="#" horiz-adv-x="1349" 
d="M284 883l51 257h-213v153h244l133 670h237l-133 -670h245l133 670h237l-133 -670h184v-153h-215l-51 -257h224v-153h-255l-145 -730h-237l145 730h-245l-145 -730h-237l145 730h-173v153h204zM572 1140l-51 -257h245l51 257h-245z" />
    <glyph glyph-name="dollar" unicode="$" 
d="M120 1613c0 238.667 96.667 373.332 290 403.999v176h232v-176c194 -30.667 291 -165.334 291 -404.001v-264h-284v264c0 88 -40.667 132.333 -122 133h-2c-81.333 0 -122 -44.333 -122 -133v-178c0 -88 88.333 -195 265 -321s265 -277 265 -453v-248
c0 -239.333 -97 -374 -291 -404v-239h-232v239c-193.333 30.667 -290 165.334 -290 404.001v263h283v-263c0 -88.667 41 -133 123 -133s123 44.333 123 133v223c0 95.333 -88 206 -264 332c-176.667 126.667 -265 280.334 -265 461.001v184z" />
    <glyph glyph-name="percent" unicode="%" horiz-adv-x="1697" 
d="M602 1079c0 -161.333 -79.333 -242 -238 -242c-159.333 0 -239 80.667 -239 242v704c0 161.333 79.667 242 239 242c158.667 0 238 -80.667 238 -242v-704zM1572 243c0 -161.333 -79.667 -242 -239 -242h-2c-157.333 0 -236 80.667 -236 242v704
c0 161.333 79.333 242 238 242c159.333 0 239 -80.667 239 -242v-704zM1406 947c0 52 -24 78 -72 78h-2c-47.333 0 -71 -26 -71 -78v-704c0 -52 24 -78 72 -78c48.667 0 73 26 73 78v704zM1281 1963l-722 -1963h-176l723 1963h175zM436 1783c0 52 -24 78 -72 78h-2
c-47.333 0 -71 -26 -71 -78v-704c0 -52 24.333 -78 73 -78c48 0 72 26 72 78v704z" />
    <glyph glyph-name="ampersand" unicode="&#x26;" horiz-adv-x="1183" 
d="M524 279c84 0.666992 126 45.333 126 134v460h-105c-30 -0.666992 -51.667 -3.66699 -65 -9c-51.333 -20 -77 -61.333 -77 -124v-327c0 -91.333 40.333 -136 121 -134zM650 1152v134.001h283v-134h180v-279h-180v-460c0 -274.667 -136.667 -412 -410 -412
c-268.667 0 -403 137.333 -403 412v327c0 128.667 51.667 219.667 155 273c-103.333 53.333 -155 144.333 -155 273v295c0 275.333 135 413 405 413c272 0 408 -137.667 408 -413v-84h-283v84c0 80 -40.333 125 -121 135c-84 -8 -126 -53 -126 -135v-295
c0 -62.667 25.667 -104.334 77 -125.001c13.333 -5.33301 35 -8.33301 65 -9h105z" />
    <glyph glyph-name="quotesingle" unicode="'" horiz-adv-x="536" 
d="M120 1963h296l-34 -652h-228z" />
    <glyph glyph-name="parenleft" unicode="(" horiz-adv-x="544" 
d="M514 -247c-262.667 3.33301 -394 141 -394 413v1632c0 271.333 131.333 408.666 394 412v-232c-74 -2 -111 -46.667 -111 -134v-1725c0 -86.667 37 -131 111 -133v-233z" />
    <glyph glyph-name="parenright" unicode=")" horiz-adv-x="544" 
d="M30 -14c74 2 111 46.333 111 133v1725c0 87.333 -37 132 -111 134v232c262.667 -3.33301 394 -140.666 394 -412v-1632c0 -272 -131.333 -409.667 -394 -413v233z" />
    <glyph glyph-name="asterisk" unicode="*" horiz-adv-x="1012" 
d="M534 1661c83.333 88.667 145.333 142.333 186 161c22 10.667 42.333 16 61 16c44.667 0 77.667 -31.667 99 -95c8 -24 12 -45.667 12 -65c0 -54 -33.333 -86 -100 -96c-10.667 -1.33301 -23 -2 -37 -2c-46.667 0 -113.667 8.66699 -201 26
c110.667 -52 181 -94.333 211 -127c25.333 -26.667 38 -53 38 -79c0 -34 -21.333 -66.667 -64 -98c-33.333 -24.667 -63.333 -37 -90 -37c-36.667 0 -66.667 23.667 -90 71c-20.667 41.333 -37.667 119.333 -51 234c-15.333 -121.333 -34 -201.333 -56 -240
c-23.333 -42.667 -53 -64 -89 -64c-25.333 0 -54.333 11.333 -87 34c-44.667 32 -67 64.667 -67 98c0 27.333 14.667 55.333 44 84c32.667 32.667 101.334 72.667 206.001 120c-86.667 -16.667 -153.334 -25 -200.001 -25c-18 0 -33 1.33301 -45 4
c-62.667 12 -94 44.667 -94 98c0 18 3.66699 38.333 11 61c20 64.667 52.667 97 98 97c20 0 42.667 -6.33301 68 -19c40.667 -21.333 100 -74.333 178 -159c-58.667 106.667 -90.667 182 -96 226c-0.666992 8 -1 15.667 -1 23c0 69.333 42 104.333 126 105h4
c83.333 0 125 -33 125 -99c0 -10.667 -1 -22 -3 -34c-8 -46 -40 -119 -96 -219z" />
    <glyph glyph-name="plus" unicode="+" horiz-adv-x="1047" 
d="M408 865h-288v233h288v287h232v-287h287v-233h-287v-287h-232v287z" />
    <glyph glyph-name="comma" unicode="," horiz-adv-x="591" 
d="M120 325h351v-287l-108 -365h-183l58 327h-118v325z" />
    <glyph glyph-name="hyphen" unicode="-" horiz-adv-x="786" 
d="M50 841v233h686v-233h-686z" />
    <glyph glyph-name="hyphen" unicode="&#xad;" horiz-adv-x="786" 
d="M50 841v233h686v-233h-686z" />
    <glyph glyph-name="period" unicode="." horiz-adv-x="565" 
d="M120 325h325v-325h-325v325z" />
    <glyph glyph-name="slash" unicode="/" horiz-adv-x="748" 
d="M688 1963l-391 -1963h-237l391 1963h237z" />
    <glyph glyph-name="zero" unicode="0" 
d="M933 381c0 -274.667 -135.667 -412 -407 -412c-270.667 0 -406 137.333 -406 412v1200c0 275.333 135.333 413 406 413c271.333 0 407 -137.667 407 -413v-1200zM650 1581c0 88.667 -41 133 -123 133h-2c-81.333 0 -122 -44.333 -122 -133v-1200
c0 -88.667 41 -133 123 -133c82.667 0 124 44.333 124 133v1200z" />
    <glyph glyph-name="one" unicode="1" horiz-adv-x="1073" 
d="M678 1962v-1683h265v-279h-813v279h265v1404h-265v279h548z" />
    <glyph glyph-name="two" unicode="2" horiz-adv-x="1073" 
d="M130 421c0 176.667 87.999 328 263.999 454c176.667 126 265.334 233 266.001 321v385c0 88.667 -40.667 133 -122 133h-2c-82 0 -123 -44.333 -123 -133v-263h-283v263c0 275.333 135.333 413 406 413c271.333 0 407 -137.667 407 -413v-392
c0 -180 -88.333 -333.333 -265 -460c-176.667 -126 -265 -236.667 -265 -332v-118h530v-279h-813v421z" />
    <glyph glyph-name="three" unicode="3" horiz-adv-x="1073" 
d="M660 1581c0 88 -41 132.334 -123 133.001h-2c-81.333 0 -122 -44.333 -122 -133v-263h-283v263c0 274.667 135.333 412 406 412c271.333 0 407 -137.333 407 -412v-341c0 -128.667 -51.667 -219.667 -155 -273c103.333 -53.333 155 -144.333 155 -273v-313
c0 -274.667 -135.667 -412 -407 -412c-270.667 0 -406 137.333 -406 412v263h283v-263c0 -88.667 40.667 -133 122 -133h2c82 0.666992 123 45 123 133v313c0 71.333 -15 113.666 -45 126.999c-16 6.66699 -40.667 10 -74 10h-93v279h115c26.667 0 46.667 4 60 12
c24.667 14 37 54 37 120v339z" />
    <glyph glyph-name="four" unicode="4" horiz-adv-x="1073" 
d="M909 1962v-1202h109v-279h-109v-481h-283v481h-574v248l496 1233h361zM331 760h295v749z" />
    <glyph glyph-name="five" unicode="5" horiz-adv-x="1073" 
d="M660 938c0 69.333 -14.667 110.335 -44 123.002c-16 7.33301 -41.667 11 -77 11c-8.66699 0 -17.667 -0.333008 -27 -1c-57.333 -2.66699 -89.333 -28.334 -96 -77.001l-3 -79h-283l42 1047h771v-279h-499l-20 -422c48 55.333 113.333 83 196 83
c11.333 0 23 -0.666992 35 -2c98.667 -8.66699 173.667 -48.334 225 -119.001c42 -57.333 63 -152.333 63 -285v-557c0 -274.667 -135.667 -412 -407 -412c-270.667 0 -406 137.333 -406 412v232h283v-232c0 -88.667 40.667 -133 122 -133h2c82 0.666992 123 45 123 133v557
z" />
    <glyph glyph-name="six" unicode="6" horiz-adv-x="1073" 
d="M413 1104c52.667 47.333 117.667 71 195 71c14 0 28.333 -0.666992 43 -2c90.667 -9.33301 161.667 -41.666 213 -96.999c52.667 -56.667 79 -158.334 79 -305.001v-390c0 -274.667 -135.667 -412 -407 -412c-270.667 0 -406 137.333 -406 412v1200
c0 275.333 135.333 413 406 413c271.333 0 407 -137.667 407 -413v-263h-283v263c0 88.667 -41 133 -123 133h-2c-81.333 0 -122 -44.333 -122 -133v-477zM660 771c0 70 -14.667 111 -44 123c-16 7.33301 -41.667 11 -77 11c-8.66699 0 -17.667 -0.333008 -27 -1
c-66 -2.66699 -99 -47 -99 -133v-390c0 -88.667 41 -133 123 -133c82.667 0 124 44.333 124 133v390z" />
    <glyph glyph-name="seven" unicode="7" horiz-adv-x="1073" 
d="M121 1683v279h837v-201l-396 -1761h-290l378 1683h-529z" />
    <glyph glyph-name="eight" unicode="8" horiz-adv-x="1074" 
d="M537 1993c271.333 0 407 -137.333 407 -412v-341c0 -128.667 -51.667 -219.667 -155 -273c103.333 -53.333 155 -144.333 155 -273v-313c0 -274.667 -135.667 -412 -407 -412s-407 137.333 -407 412v313c0 128.667 51.667 219.667 155 273
c-103.333 53.333 -155 144.333 -155 273v341c0 274.667 135.667 412 407 412zM538 248c82 0.666992 123 45 123 133v313c0 71.333 -15 113.666 -45 126.999c-16 6.66699 -40.667 10 -74 10h-10c-33.333 0 -58 -3.33301 -74 -10c-30 -13.333 -45 -55.666 -45 -126.999v-313
c0 -88 41 -132.333 123 -133h2zM564 1110c26.667 0 46.667 4 60 12c24.667 14 37 54 37 120v339c0 88 -41 132.333 -123 133h-2c-82 -0.666992 -123 -45 -123 -133v-339c0 -66 12.333 -106 37 -120c13.333 -8 33.333 -12 60 -12h54z" />
    <glyph glyph-name="nine" unicode="9" horiz-adv-x="1073" 
d="M660 859c-54 -48 -120 -72 -198 -72c-12.667 0 -26 0.666992 -40 2c-90.667 9.33301 -161.667 41.666 -213 96.999c-52.667 57.333 -79 159 -79 305v390c0 274.667 135.667 412.334 407 413.001c270.667 0 406 -137.667 406 -413v-1200
c0 -274.667 -135.667 -412 -407 -412c-270.667 0 -406 137.333 -406 412v264h283v-264c0 -88 41 -132.333 123 -133h2c81.333 0 122 44.333 122 133v478zM413 1191c0 -69.333 14.667 -110.333 44 -123c15.333 -6.66699 40.333 -10 75 -10c8.66699 0 18 0.333008 28 1
c66.667 2 100 46 100 132v390c0 88.667 -41 133 -123 133c-82.667 0 -124 -44.333 -124 -133v-390z" />
    <glyph glyph-name="colon" unicode=":" horiz-adv-x="564" 
d="M120 1329h324v-324h-324v324zM120 325h324v-325h-324v325z" />
    <glyph glyph-name="semicolon" unicode=";" horiz-adv-x="591" 
d="M120 325h351v-287l-108 -365h-183l58 327h-118v325zM120 1329h325v-324h-325v324z" />
    <glyph glyph-name="semicolon" unicode="&#x37e;" horiz-adv-x="591" 
d="M120 325h351v-287l-108 -365h-183l58 327h-118v325zM120 1329h325v-324h-325v324z" />
    <glyph glyph-name="less" unicode="&#x3c;" horiz-adv-x="1047" 
d="M120 1120l807 452v-275l-587 -320l587 -311v-274l-807 437v291z" />
    <glyph glyph-name="equal" unicode="=" horiz-adv-x="1047" 
d="M120 1096v233h807v-233h-807zM120 633v232h807v-232h-807z" />
    <glyph glyph-name="greater" unicode="&#x3e;" horiz-adv-x="1047" 
d="M927 829l-807 -437v274l587 311l-587 320v275l807 -452v-291z" />
    <glyph glyph-name="question" unicode="?" 
d="M236 325h325v-325h-325v325zM933 1384c0 -166 -66.333 -314.999 -199 -446.999s-199 -247 -199 -345v-45h-283v69c0 163.333 66.333 310.666 199 441.999s199 242.333 199 333v190c0 88.667 -40.667 133 -122 133h-2c-82 0 -123 -44.333 -123 -133v-263h-283v263
c0 275.333 135.667 413 407 413c270.667 0 406 -137.667 406 -413v-197z" />
    <glyph glyph-name="at" unicode="@" horiz-adv-x="1483" 
d="M1352 1303v-79c0 -181.333 -89 -272 -267 -272h-109v-344c0 -181.333 -89.333 -272 -268 -272c-178 0 -267 90.667 -267 272v257c0 180.667 89 271 267 271h82v262c0 58 -27 87 -81 87h-2c-53.333 0 -80 -29 -80 -87v-70h-186v70c0 180.667 89 271 267 271
c178.667 0 268 -90.333 268 -271v-262h109c54 0 81 29.333 81 88v186c0 274.667 -141.333 412 -424 412c-283.333 0 -425 -141.667 -425 -425v-801c0 -274.667 141.667 -412 425 -412c282.667 0 424 141.333 424 424v43h187v-43c0 -404.667 -203.667 -607 -611 -607
c-408 0 -612 198.333 -612 595v801c0 405.333 204 608 612 608c407.333 0 611 -198.333 611 -595v-107h-1zM692 953c-54 0 -81 -29.333 -81 -88v-257c0 -58.667 27 -88 81 -88c54.667 0 82 29.333 82 88v344z" />
    <glyph glyph-name="A" unicode="A" horiz-adv-x="1051" 
d="M919 696l92 -696h-286l-55 416h-289l-56 -416h-285l92 693l200 1269h388zM633 696l-108 816l-108 -816h216z" />
    <glyph glyph-name="B" unicode="B" horiz-adv-x="1043" 
d="M130 1962l436 0.000976562c251.333 -0.666992 377 -138.334 377 -413.001v-295c0 -128.667 -51.667 -219.667 -155 -273c103.333 -53.333 155 -144.333 155 -273v-296c0 -274 -131.667 -411.333 -395 -412h-418v1962zM413 1683v-562.001h89c39.333 0 66.333 2.66699 81 8
c51.333 20.667 77 62.334 77 125.001v295c0 89.333 -41 134 -123 134h-124zM413 841v-562h124c82 0 123 44.333 123 133v296c0 62.667 -25.667 104 -77 124c-14.667 6 -41.667 9 -81 9h-89z" />
    <glyph glyph-name="C" unicode="C" horiz-adv-x="1023" 
d="M923 381c0 -274.667 -135.667 -412.333 -407 -413c-270.667 0 -406 137.667 -406 413v1200c0 274.667 135.333 412 406 412c271.333 0 407 -137.333 407 -412v-264h-283v264c0 88 -41 132.333 -123 133h-2c-81.333 0 -122 -44.333 -122 -133v-1200
c0 -88.667 41 -133 123 -133c82.667 0 124 44.333 124 133v264h283v-264z" />
    <glyph glyph-name="D" unicode="D" 
d="M130 1962l436 0.000976562c251.333 -0.666992 377 -138.334 377 -413.001v-1137c0 -274 -131.667 -411.333 -395 -412h-418v1962zM413 1683v-1404h124c82 0 123 44.333 123 133v1137c0 89.333 -41 134 -123 134h-124z" />
    <glyph glyph-name="E" unicode="E" horiz-adv-x="944" 
d="M130 1962h734v-279h-451v-562h388v-280h-388v-562h451v-279h-734v1962z" />
    <glyph glyph-name="F" unicode="F" horiz-adv-x="924" 
d="M130 1962h734v-279h-451v-562h388v-280h-388v-841h-283v1962z" />
    <glyph glyph-name="G" unicode="G" horiz-adv-x="1033" 
d="M923 381c0 -274.667 -135.667 -412.333 -407 -413c-270.667 0 -406 137.667 -406 413v1200c0 274.667 135.333 412 406 412c271.333 0 407 -137.333 407 -412v-264h-283v264c0 88 -41 132.333 -123 133h-2c-81.333 0 -122 -44.333 -122 -133v-1200
c0 -88.667 41 -133 123 -133c82.667 0 124 44.333 124 133v460h-143v280h426v-740z" />
    <glyph glyph-name="H" unicode="H" horiz-adv-x="1073" 
d="M130 1962h283v-841h247v841h283v-1962h-283v841h-247v-841h-283v1962z" />
    <glyph glyph-name="I" unicode="I" horiz-adv-x="553" 
d="M135 1962h283v-1962h-283v1962z" />
    <glyph glyph-name="J" unicode="J" horiz-adv-x="973" 
d="M30 497l283 -0.000976562v-116c0 -88.667 41.333 -133 124 -133c82 0 123 44.333 123 133v1581h283v-1581c0 -275.333 -135.333 -413 -406 -413c-271.333 0.666992 -407 138.334 -407 413.001v116z" />
    <glyph glyph-name="K" unicode="K" horiz-adv-x="1057" 
d="M643 981l374 -981h-303l-301 872v-872h-283v1962h283v-873l301 873h303z" />
    <glyph glyph-name="L" unicode="L" horiz-adv-x="904" 
d="M130 0v1962h283v-1683h451v-279h-734z" />
    <glyph glyph-name="M" unicode="M" horiz-adv-x="1488" 
d="M746 618l329 1344h283v-1962h-271v1101l-242 -1101h-192l-249 1101v-1101h-274v1962h283z" />
    <glyph glyph-name="N" unicode="N" horiz-adv-x="1073" 
d="M130 1962h283l268 -1138v1138h262v-1962h-283l-258 1102v-1102h-272v1962z" />
    <glyph glyph-name="O" unicode="O" horiz-adv-x="1033" 
d="M923 381c0 -274.667 -135.667 -412.333 -407 -413c-270.667 0 -406 137.667 -406 413v1200c0 274.667 135.333 412 406 412c271.333 0 407 -137.333 407 -412v-1200zM640 1581c0 88 -41 132.333 -123 133h-2c-81.333 0 -122 -44.333 -122 -133v-1200
c0 -88.667 41 -133 123 -133c82.667 0 124 44.333 124 133v1200z" />
    <glyph glyph-name="P" unicode="P" horiz-adv-x="999" 
d="M130 1962l412 0.00195312c251.333 -0.666992 377 -138.334 377 -413.001v-295c0 -202.667 -90.333 -333.334 -271 -392.001c-43.333 -14 -106.333 -21 -189 -21h-46v-841h-283v1962zM413 1683v-562.001h65c39.333 0 66.333 2.66699 81 8
c51.333 20.667 77 62.334 77 125.001v295c0 89.333 -41 134 -123 134h-100z" />
    <glyph glyph-name="Q" unicode="Q" horiz-adv-x="1033" 
d="M923 381c0 -245.333 -103.332 -381 -309.999 -407c3.33301 -42.667 106.666 -64.667 309.999 -66v-236c-167.333 0 -282.333 16.333 -345 49c-81.333 41.333 -123 124.666 -125 249.999c-228.667 16.667 -343 153.334 -343 410.001v1200c0 274.667 135.333 412 406 412
c271.333 0 407 -137.333 407 -412v-1200zM640.001 1581c0 88 -41 132.333 -123 133h-2c-81.333 0 -122 -44.333 -122 -133v-1200c0 -88.667 41 -133 123 -133c82.667 0 124 44.333 124 133v1200z" />
    <glyph glyph-name="R" unicode="R" horiz-adv-x="1044" 
d="M130 1962l412 0.00195312c251.333 -0.666992 377 -138.334 377 -413.001v-295c0 -172.667 -74.333 -286.334 -223 -341.001l318 -913h-310l-255 863l-36 -5v-858h-283v1962zM413 1683v-562.001h65c39.333 0 66.333 2.66699 81 8c51.333 20.667 77 62.334 77 125.001v295
c0 89.333 -41 134 -123 134h-100z" />
    <glyph glyph-name="S" unicode="S" horiz-adv-x="1033" 
d="M110 1581c0 274.667 135.333 411.998 406 411.998c271.333 0 407 -137.333 407 -412v-264h-283v264c0 88 -41 132.333 -123 133h-2c-81.333 0 -122 -44.333 -122 -133v-178c0 -87.333 88.333 -194.333 265 -321c176.667 -126 265 -277 265 -453v-248
c0 -275.333 -135.333 -413 -406 -413c-271.333 0.666992 -407 138.334 -407 413.001v264h283v-264c0 -88.667 41.333 -133 124 -133c82 0 123 44.333 123 133v224c0 94.667 -88.333 205.334 -265 332.001c-176.667 126 -265 279.333 -265 460v184z" />
    <glyph glyph-name="T" unicode="T" horiz-adv-x="913" 
d="M863 1962v-279h-265v-1683h-283v1683h-265v279h813z" />
    <glyph glyph-name="U" unicode="U" 
d="M933 381c0 -274.667 -135.667 -412.333 -407 -413c-270.667 0 -406 137.667 -406 413v1581h283v-1581c0 -88.667 41 -133 123 -133c82.667 0 124 44.333 124 133v1581h283v-1581z" />
    <glyph glyph-name="V" unicode="V" horiz-adv-x="1051" 
d="M720 0h-388l-200 1268l-92 694h286l199 -1512l200 1512h286l-92 -696z" />
    <glyph glyph-name="W" unicode="W" horiz-adv-x="1732" 
d="M1206 450l200 1512h286l-92 -696l-199 -1266h-388l-147 1013l-146 -1013h-388l-200 1268l-92 694h285l200 -1512l200 1512h281z" />
    <glyph glyph-name="X" unicode="X" horiz-adv-x="1017" 
d="M325 1962l184 -552l183 552h285l-326 -981l326 -981h-285l-183 552l-184 -552h-285l326 981l-326 981h285z" />
    <glyph glyph-name="Y" unicode="Y" horiz-adv-x="1066" 
d="M340 1962l193 -765l193 765h300l-343 -1113l-8 -24v-825h-283v825l-9 24l-343 1113h300z" />
    <glyph glyph-name="Z" unicode="Z" horiz-adv-x="880" 
d="M783 1792l-384 -1513h401v-279h-720v170l384 1513h-371v279h690v-170z" />
    <glyph glyph-name="bracketleft" unicode="[" horiz-adv-x="547" 
d="M517 2210v-232h-154v-1992h154v-233h-387v2457h387z" />
    <glyph glyph-name="backslash" unicode="\" horiz-adv-x="748" 
d="M297 1963l391 -1963h-237l-391 1963h237z" />
    <glyph glyph-name="bracketright" unicode="]" horiz-adv-x="547" 
d="M417 2210v-2457h-387v233h154v1992h-154v232h387z" />
    <glyph glyph-name="asciicircum" unicode="^" horiz-adv-x="1157" 
d="M706 1979l351 -807h-254l-225 517l-224 -517h-254l351 807h255z" />
    <glyph glyph-name="underscore" unicode="_" horiz-adv-x="1032" 
d="M0 -318v211h1032v-211h-1032z" />
    <glyph glyph-name="grave" unicode="`" horiz-adv-x="624" 
d="M130 2058h222l142 -253h-157z" />
    <glyph glyph-name="a" unicode="a" horiz-adv-x="1051" 
d="M919 615l92 -615h-286l-55 368h-289l-56 -368h-285l92 613l200 1121h388zM633 615l-108 722l-108 -722h216z" />
    <glyph glyph-name="b" unicode="b" horiz-adv-x="1043" 
d="M130 1734l436 -0.000976562c251.333 0 377 -121.667 377 -365v-260c0 -114 -51.667 -194.667 -155 -242c103.333 -47.333 155 -127.666 155 -240.999v-262c0 -242 -131.667 -363.333 -395 -364h-418v1734zM413 1488v-497h89c39.333 0 66.333 2.33301 81 7
c51.333 18 77 55 77 111v260c0 79.333 -41 119 -123 119h-124zM413 742.999v-495.999h124c82 0 123 39 123 117v262c0 55.333 -25.667 91.666 -77 108.999c-14.667 5.33301 -41.667 8 -81 8h-89z" />
    <glyph glyph-name="c" unicode="c" horiz-adv-x="1023" 
d="M923 333c0 -242.667 -135.667 -364.333 -407 -365c-270.667 0 -406 121.667 -406 365v1061c0 242.667 135.333 364 406 364c271.333 0 407 -121.333 407 -364v-233h-283v233c0 78 -41 117 -123 117h-2c-81.333 0 -122 -39 -122 -117v-1061c0 -78 41 -117 123 -117
c82.667 0 124 39 124 117v233h283v-233z" />
    <glyph glyph-name="d" unicode="d" 
d="M130 1734h436c251.333 0 377 -121.667 377 -365v-1005c0 -242 -131.667 -363.333 -395 -364h-418v1734zM413 1488v-1241h124c82 0 123 39 123 117v1005c0 79.333 -41 119 -123 119h-124z" />
    <glyph glyph-name="e" unicode="e" horiz-adv-x="944" 
d="M130 1734h734v-246h-451v-497h388v-248h-388v-496h451v-247h-734v1734z" />
    <glyph glyph-name="f" unicode="f" horiz-adv-x="924" 
d="M130 1734h734v-246h-451v-497h388v-248h-388v-743h-283v1734z" />
    <glyph glyph-name="g" unicode="g" horiz-adv-x="1033" 
d="M923 333c0 -242.667 -135.667 -364.333 -407 -365c-270.667 0 -406 121.667 -406 365v1061c0 242.667 135.333 364 406 364c271.333 0 407 -121.333 407 -364v-233h-283v233c0 78 -41 117 -123 117h-2c-81.333 0 -122 -39 -122 -117v-1061c0 -78 41 -117 123 -117
c82.667 0 124 39 124 117v407h-143v247h426v-654z" />
    <glyph glyph-name="h" unicode="h" horiz-adv-x="1073" 
d="M130 1734h283v-743h247v743h283v-1734h-283v743h-247v-743h-283v1734z" />
    <glyph glyph-name="i" unicode="i" horiz-adv-x="553" 
d="M135 1734h283v-1734h-283v1734z" />
    <glyph glyph-name="j" unicode="j" horiz-adv-x="973" 
d="M30 436l283 -0.000976562v-103c0 -78 41.333 -117 124 -117c82 0 123 39 123 117v1398h283v-1398c0 -243.333 -135.333 -365 -406 -365c-271.333 0.666992 -407 122.334 -407 365.001v103z" />
    <glyph glyph-name="k" unicode="k" horiz-adv-x="1057" 
d="M643 867l374 -867h-303l-301 771v-771h-283v1734h283v-771l301 771h303z" />
    <glyph glyph-name="l" unicode="l" horiz-adv-x="904" 
d="M130 0v1734h283v-1487h451v-247h-734z" />
    <glyph glyph-name="m" unicode="m" horiz-adv-x="1488" 
d="M746 546l329 1188h283v-1734h-271v973l-242 -973h-192l-249 973v-973h-274v1734h283z" />
    <glyph glyph-name="n" unicode="n" horiz-adv-x="1073" 
d="M130 1734h283l268 -1006v1006h262v-1734h-283l-258 974v-974h-272v1734z" />
    <glyph glyph-name="o" unicode="o" horiz-adv-x="1033" 
d="M923 333c0 -242.667 -135.667 -364.333 -407 -365c-270.667 0 -406 121.667 -406 365v1061c0 242.667 135.333 364 406 364c271.333 0 407 -121.333 407 -364v-1061zM640 1394c0 78 -41 117 -123 117h-2c-81.333 0 -122 -39 -122 -117v-1061c0 -78 41 -117 123 -117
c82.667 0 124 39 124 117v1061z" />
    <glyph glyph-name="p" unicode="p" horiz-adv-x="999" 
d="M130 1734h412c251.333 0 377 -121.667 377 -365v-260c0 -179.333 -90.333 -295 -271 -347c-43.333 -12.667 -106.333 -19 -189 -19h-46v-743h-283v1734zM413 1488v-497h65c39.333 0 66.333 2.33301 81 7c51.333 18 77 55 77 111v260c0 79.333 -41 119 -123 119h-100z" />
    <glyph glyph-name="q" unicode="q" horiz-adv-x="1033" 
d="M923 299c0 -217.333 -103.332 -337.334 -309.999 -360.001c3.33301 -38 106.666 -57.333 309.999 -58v-209c-167.333 0 -282.333 14.333 -345 43c-81.333 36.667 -123 110.334 -125 221.001c-228.667 14.667 -343 135.667 -343 363v1061c0 242.667 135.333 364 406 364
c271.333 0 407 -121.333 407 -364v-1061zM640.001 1360c0 77.333 -41 116.333 -123 117h-2c-81.333 0 -122 -39 -122 -117v-1061c0 -78.667 41 -118 123 -118c82.667 0 124 39.333 124 118v1061z" />
    <glyph glyph-name="r" unicode="r" horiz-adv-x="1044" 
d="M130 1734l412 0.000976562c251.333 0 377 -121.667 377 -365v-260c0 -152.667 -74.333 -253.334 -223 -302.001l318 -807h-310l-255 763l-36 -5v-758h-283v1734zM413 1488v-497h65c39.333 0 66.333 2.33301 81 7c51.333 18 77 55 77 111v260c0 79.333 -41 119 -123 119
h-100z" />
    <glyph glyph-name="s" unicode="s" horiz-adv-x="1033" 
d="M110 1394c0 242.667 135.333 364 406 364c271.333 0 407 -121.333 407 -364v-233h-283v233c0 78 -41 117 -123 117h-2c-81.333 0 -122 -39 -122 -117v-157c0 -77.333 88.333 -172 265 -284c176.667 -111.333 265 -245 265 -401v-219c0 -243.333 -135.333 -365 -406 -365
c-271.333 0.666992 -407 122.334 -407 365.001v233h283v-233c0 -78 41.333 -117 124 -117c82 0 123 39 123 117v198c0 84 -88.333 182 -265 294c-176.667 111.333 -265 246.666 -265 405.999v163z" />
    <glyph glyph-name="t" unicode="t" horiz-adv-x="913" 
d="M863 1734v-246h-265v-1488h-283v1488h-265v246h813z" />
    <glyph glyph-name="u" unicode="u" 
d="M933 333c0 -242.667 -135.667 -364.333 -407 -365c-270.667 0 -406 121.667 -406 365v1398h283v-1398c0 -78 41 -117 123 -117c82.667 0 124 39 124 117v1398h283v-1398z" />
    <glyph glyph-name="v" unicode="v" horiz-adv-x="1051" 
d="M720 0h-388l-200 1121l-92 613h286l199 -1336l200 1336h286l-92 -615z" />
    <glyph glyph-name="w" unicode="w" horiz-adv-x="1732" 
d="M1206 398l200 1336h286l-92 -615l-199 -1119h-388l-147 895l-146 -895h-388l-200 1121l-92 613h285l200 -1336l200 1336h281z" />
    <glyph glyph-name="x" unicode="x" horiz-adv-x="1017" 
d="M325 1734l184 -488l183 488h285l-326 -867l326 -867h-285l-183 488l-184 -488h-285l326 867l-326 867h285z" />
    <glyph glyph-name="y" unicode="y" horiz-adv-x="1066" 
d="M340 1734l193 -676l193 676h300l-343 -983l-8 -22v-729h-283v729l-9 22l-343 983h300z" />
    <glyph glyph-name="z" unicode="z" horiz-adv-x="880" 
d="M783 1584l-384 -1337h401v-247h-720v150l384 1338h-371v246h690v-150z" />
    <glyph glyph-name="braceleft" unicode="{" horiz-adv-x="545" 
d="M515 -247c-262.667 3.33301 -394 141.003 -394 413.003v566c0 87.333 -37 131.666 -111 132.999v233c74 2 111 46.333 111 133v567c0 271.333 131.333 408.666 394 411.999v-232c-74 -2 -111 -46.667 -111 -134v-566c0 -132.667 -26.333 -231.334 -79 -296.001
c52.667 -65.333 79 -164.333 79 -297v-566c0 -86.667 37 -131 111 -133v-233z" />
    <glyph glyph-name="bar" unicode="|" horiz-adv-x="512" 
d="M140 2290h232v-2617h-232v2617z" />
    <glyph glyph-name="braceright" unicode="}" horiz-adv-x="545" 
d="M30 -14c74 2 111 46.3301 111 132.997v566c0 132.667 26.333 231.667 79 297c-52.667 64.667 -79 163.334 -79 296.001v566c0 87.333 -37 132 -111 134v232c262.667 -3.33301 394 -140.666 394 -411.999v-567c0 -86.667 37 -131 111 -133v-233
c-74 -1.33301 -111 -45.666 -111 -132.999v-566c0 -272 -131.333 -409.667 -394 -413v233z" />
    <glyph glyph-name="asciitilde" unicode="~" horiz-adv-x="1100" 
d="M268 831l-168.001 109l54 83c66 102.667 143.333 154 232 154h10c58.667 -2.66699 133.334 -38 224.001 -106c45.333 -34 82.666 -51 111.999 -51c20.667 0 37.334 8 50.001 24l62 78l156 -124l-62 -78c-60 -76 -128 -114 -204 -114h-12
c-58.667 2.66699 -132.667 37.667 -222 105c-52.667 40 -84.667 61 -96 63c-2.66699 0.666992 -5.66699 1 -9 1c-22.667 0 -47 -20 -73 -60z" />
    <glyph glyph-name="exclamdown" unicode="&#xa1;" horiz-adv-x="565" 
d="M120 -233l21 1432h283l21 -1432h-325zM445 1404h-325v325h325v-325z" />
    <glyph glyph-name="cent" unicode="&#xa2;" horiz-adv-x="1073" 
d="M403 609l246 805c-7.33301 64 -48 96.333 -122 97c-82.667 0 -124 -39.333 -124 -118v-784zM435 247c20 -18.667 50.333 -28.001 91 -28.001c82.667 0 124 39 124 117v233h283v-233c0 -242 -135.667 -363 -407 -363c-64 0 -120.333 6.66699 -169 20l-98 -320l-139 9
l113 372c-75.333 60 -113 154 -113 282v1057c0 242.667 135.333 364 406 364c85.333 0 157.333 -12 216 -36l71 231l140 -9l-94 -306c49.333 -59.333 74 -140.666 74 -243.999v-232h-219z" />
    <glyph glyph-name="sterling" unicode="&#xa3;" horiz-adv-x="1126" 
d="M536 918v-366c0 -118 -20.667 -209 -62 -273h513v-279h-927v279h69c82.667 0 124 44.667 124 134v505h-193v158h193v505c0 275.333 135.333 413 406 413c271.333 0 407 -137.667 407 -413v-263h-283v263c0 88.667 -41 133 -123 133h-2c-81.333 0 -122 -44.333 -122 -133
v-505h331v-158h-331z" />
    <glyph glyph-name="currency" unicode="&#xa4;" horiz-adv-x="1398" 
d="M1106 848c0 -38 -2.33398 -73.333 -7.00098 -106l169 -168l-170 -171l-110 111c-64.667 -52 -161 -78 -289 -78s-224 25.667 -288 77l-110 -110l-171 171l169 168c-4 32 -6 67.333 -6 106v267c0 32 1.33301 61.667 4 89l-167 167l171 170l100 -100
c64 58 163.333 87 298 87s234.334 -29 299.001 -87l100 100l170 -170l-167 -167c3.33301 -27.333 5 -57 5 -89v-267zM822.999 1115c0 88 -41 132.333 -123 133h-2c-81.333 0 -122 -44.333 -122 -133v-267c0 -88.667 41 -133 123 -133c82.667 0 124 44.333 124 133v267z" />
    <glyph glyph-name="yen" unicode="&#xa5;" horiz-adv-x="1186" 
d="M404 976l-304 986h300l193 -764l193 764h300l-304 -986h215v-158h-262v-159h262v-159h-262v-500h-283v500h-262v159h262v159h-262v158h214z" />
    <glyph glyph-name="brokenbar" unicode="&#xa6;" horiz-adv-x="512" 
d="M140 1729h232v-743h-232v743zM140 784h232v-784h-232v784z" />
    <glyph glyph-name="section" unicode="&#xa7;" 
d="M529 -327c-257.333 0 -386 126.668 -386 380.001v106h283v-106c0 -82 37.667 -123 113 -123c73.333 0 110 41 110 123c0 128 -88 245.333 -264 352c-176.667 106 -265 273.667 -265 503c0 182 62.667 297.333 188 346c-125.333 84 -188 212 -188 384
c0 237.333 134.333 356 403 356c257.333 0 386 -118.667 386 -356v-100h-283v100c0 76.667 -37.333 115 -112 115c-74 0 -111 -38.333 -111 -115c0 -120 88.333 -230 265 -330s265 -257.333 265 -472c0 -190 -80.333 -303.333 -241 -340
c160.667 -98.667 241 -246.334 241 -443.001c0 -253.333 -134.667 -380 -404 -380zM653 896.001c0 95.333 -44.333 143.333 -133 144h-2c-88 0 -132 -48 -132 -144v-41c0 -96 44.333 -144 133 -144c89.333 0 134 48 134 144v41z" />
    <glyph glyph-name="dieresis" unicode="&#xa8;" horiz-adv-x="899" 
d="M130 2048h242v-242h-242v242zM526 2048h243v-242h-243v242z" />
    <glyph glyph-name="copyright" unicode="&#xa9;" horiz-adv-x="1463" 
d="M1343 608c0 -404.667 -204 -607 -612 -607c-407.333 0 -611 198.333 -611 595v801c0 405.333 203.667 608 611 608c408 0 612 -198.333 612 -595v-802zM1156 1410c0 274.667 -141.333 412 -424 412c-283.333 0 -425 -141.667 -425 -425v-801
c0 -274.667 141.333 -412 424 -412c283.333 0 425 141.333 425 424v802zM1004 604c0 -183.333 -90.333 -275.001 -271 -275.001c-180 0 -270 91.667 -270 275v798c0 182.667 90 274 270 274c180.667 0 271 -91.333 271 -274v-77h-189v77c0 58.667 -27 88.334 -81 89.001
c-55.333 0 -83 -29.667 -83 -89v-798c0 -59.333 27.333 -89 82 -89s82 29.667 82 89v76h189v-76z" />
    <glyph glyph-name="ordfeminine" unicode="&#xaa;" horiz-adv-x="761" 
d="M640 1293l61 -368h-189l-36 221h-191l-37 -221h-188l61 367l132 670h256zM451 1293l-71 431l-71 -431h142zM67 521v193h619v-193h-619z" />
    <glyph glyph-name="guillemotleft" unicode="&#xab;" horiz-adv-x="1305" 
d="M686 1179l-224 -190l224 -184v-320l-556 517l556 507v-330zM1175 1179l-224 -190l224 -184v-320l-556 517l556 507v-330z" />
    <glyph glyph-name="logicalnot" unicode="&#xac;" horiz-adv-x="1067" 
d="M130 865v233h807v-520h-232v287h-575z" />
    <glyph glyph-name="registered" unicode="&#xae;" horiz-adv-x="1463" 
d="M1343 608c0 -404.667 -204 -607 -612 -607c-407.333 0 -611 198.333 -611 595v801c0 405.333 203.667 608 611 608c408 0 612 -198.333 612 -595v-802zM1156 1410c0 274.667 -141.333 412 -424 412c-283.333 0 -425 -141.667 -425 -425v-801
c0 -274.667 141.333 -412 424 -412c283.333 0 425 141.333 425 424v802zM458 1656l278 -1.00098h12c167.333 0 251 -91.333 251 -274v-197c0 -85.333 -34.333 -145.666 -103 -180.999c68.667 -35.333 103 -96 103 -182v-471h-188v471c0 41.333 -17 69 -51 83
c-10 4 -28.333 6 -55 6h-59v-560h-188v1306zM646 1470v-373.999h59c26.667 0 45 2 55 6c34 13.333 51 40.666 51 81.999v197c0 59.333 -27.333 89 -82 89h-83z" />
    <glyph glyph-name="macron" unicode="&#xaf;" horiz-adv-x="1208" 
d="M0 1752v211h1208v-211h-1208z" />
    <glyph glyph-name="degree" unicode="&#xb0;" horiz-adv-x="877" 
d="M747 1741c0 -206 -103 -309 -309 -309c-205.333 0 -308 103 -308 309c0 205.333 102.667 308 308 308c206 0 309 -102.667 309 -308zM438 1866c-83.333 0 -125 -41.667 -125 -125c0 -84 41.667 -126 125 -126c84 0 126 42 126 126c0 83.333 -42 125 -126 125z" />
    <glyph glyph-name="plusminus" unicode="&#xb1;" horiz-adv-x="1047" 
d="M408 865h-288v233h288v287h232v-287h287v-233h-287v-287h-232v287zM925 372v-212h-805v212h805z" />
    <glyph glyph-name="uni00B2" unicode="&#xb2;" horiz-adv-x="674" 
d="M100 1077c0 102.667 51.332 191 153.999 265c102.667 73.333 154.334 135.666 155.001 186.999v224c0 52 -23.667 78 -71 78h-1c-48 0 -72 -26 -72 -78v-153h-165v153c0 160.667 79 241 237 241s237 -80.333 237 -241v-228c0 -105.333 -51.667 -195 -155 -269
c-102.667 -73.333 -154 -137.666 -154 -192.999v-69h309v-163h-474v246z" />
    <glyph glyph-name="uni00B3" unicode="&#xb3;" horiz-adv-x="679" 
d="M414 1261c0 42 -8.66602 67 -25.999 75c-10 4 -24.667 6 -44 6h-57v164h70c15.333 0 27 2.33301 35 7c14.667 8.66699 22 32.334 22 71.001v172c0 42 -8.66699 67 -26 75c-10 4 -25.333 6 -46 6c-5.33301 0 -11 -0.333008 -17 -1c-40 -1.33301 -60 -28 -60 -80v-154h-165
v155c0 112 32.333 184.667 97 218c45.333 23.333 91.666 35 138.999 35c44 0 89 -10.333 135 -31c72 -30.667 108 -104.667 108 -222v-174c0 -76 -30.333 -129.667 -91 -161c60.667 -31.333 91 -85 91 -161v-210c0 -100.667 -26 -169.334 -78 -206.001
c-32.667 -23.333 -83.667 -36 -153 -38h-14c-61.333 0 -109 10 -143 30c-60.667 34.667 -91 106 -91 214v155h165v-156c0 -53.333 24.667 -80 74 -80c50 0 75 26.667 75 80v211z" />
    <glyph glyph-name="acute" unicode="&#xb4;" horiz-adv-x="624" 
d="M287 1805h-157l142 253h222z" />
    <glyph glyph-name="mu" unicode="&#xb5;" horiz-adv-x="1063" 
d="M413 380c0 -88 41 -132 123 -132c82.667 0 124 44.333 124 133v1254h283v-1254c0 -248.667 -106.333 -384.667 -319 -408c-12.667 -1.33301 -25 -2 -37 -2c-62 0 -120 17.667 -174 53v-351h-283v1962h283v-1255z" />
    <glyph glyph-name="paragraph" unicode="&#xb6;" horiz-adv-x="1170" 
d="M1040 1963v-1963h-201v1762h-223v-1762h-201v1021c-129.333 0 -211.333 13 -246 39c-46 34.667 -69 118 -69 250v354c0 132.667 23.667 217.667 71 255c36.667 29.333 118 44 244 44h625z" />
    <glyph glyph-name="periodcentered" unicode="&#xb7;" horiz-adv-x="508" 
d="M119.997 1119.24h276.242v-276.242h-276.242v276.242z" />
    <glyph glyph-name="periodcentered" unicode="&#x2219;" horiz-adv-x="508" 
d="M119.997 1119.24h276.242v-276.242h-276.242v276.242z" />
    <glyph glyph-name="cedilla" unicode="&#xb8;" horiz-adv-x="634" 
d="M299 -86c24.667 13.333 47.668 19.999 69.001 19.999c20.667 0 39.667 -6.66699 57 -20c18.667 -13.333 28 -36.666 28 -69.999v-99c0 -56.667 -34.333 -87.667 -103 -93c-10 -1.33301 -21.333 -2 -34 -2c-6.66699 0 -13.334 0.333008 -20.001 1
c-79.333 2 -119 33.333 -119 94v29h118v-29c0 -10 6.66699 -15 20 -15s20 5 20 15v99c0 11.333 -6 17.333 -18 18h-2c-11.333 0 -19.333 -5.66699 -24 -17h-113l31 156h121z" />
    <glyph glyph-name="uni00B9" unicode="&#xb9;" horiz-adv-x="1073" 
d="M446 1962v-971h153v-161h-469v161h153v810h-153v161h316z" />
    <glyph glyph-name="ordmasculine" unicode="&#xba;" horiz-adv-x="777" 
d="M657 1110c0 -145.333 -89.667 -218 -269 -218c-178.667 0 -268 72.667 -268 218v634c0 145.333 89.333 218 268 218c179.333 0 269 -72.667 269 -218v-634zM470 1744c0 46.667 -27 70.333 -81 71c-54.667 0 -82 -23.667 -82 -71v-634c0 -47.333 27 -71 81 -71
c54.667 0 82 23.667 82 71v634zM130 505.999v175h516v-175h-516z" />
    <glyph glyph-name="guillemotright" unicode="&#xbb;" horiz-adv-x="1305" 
d="M130 1509l556 -507l-556 -517v320l224 184l-224 190v330zM619 1509l556 -507l-556 -517v320l224 184l-224 190v330z" />
    <glyph glyph-name="onequarter" unicode="&#xbc;" horiz-adv-x="1609" 
d="M1446 1125v-689h63v-160h-63v-276h-162v276h-329v142l284 707h207zM1115 436h169v429zM1337 1963l-722 -1963h-176l723 1963h175zM436 1962v-971h153v-161h-469v161h153v810h-153v161h316z" />
    <glyph glyph-name="onehalf" unicode="&#xbd;" horiz-adv-x="1685" 
d="M1277 1963l-722 -1963h-176l723 1963h175zM376 1962v-971h153v-161h-469v161h153v810h-153v161h316zM1111 246c0 102.667 51.332 191 153.999 265c102.667 73.333 154.334 135.666 155.001 186.999v224c0 52 -23.667 78 -71 78h-1c-48 0 -72 -26 -72 -78v-153h-165v153
c0 160.667 79 241 237 241s237 -80.333 237 -241v-228c0 -105.333 -51.667 -195 -155 -269c-102.667 -73.333 -154 -137.666 -154 -192.999v-69h309v-163h-474v246z" />
    <glyph glyph-name="threequarters" unicode="&#xbe;" horiz-adv-x="1549" 
d="M1386 1125v-689h63v-160h-63v-276h-162v276h-329v142l284 707h207zM1055 436h169v429zM1277 1963l-722 -1963h-176l723 1963h175zM414 1261c0 42 -8.66602 67 -25.999 75c-10 4 -24.667 6 -44 6h-57v164h70c15.333 0 27 2.33301 35 7c14.667 8.66699 22 32.334 22 71.001
v172c0 42 -8.66699 67 -26 75c-10 4 -25.333 6 -46 6c-5.33301 0 -11 -0.333008 -17 -1c-40 -1.33301 -60 -28 -60 -80v-154h-165v155c0 112 32.333 184.667 97 218c45.333 23.333 91.666 35 138.999 35c44 0 89 -10.333 135 -31c72 -30.667 108 -104.667 108 -222v-174
c0 -76 -30.333 -129.667 -91 -161c60.667 -31.333 91 -85 91 -161v-210c0 -100.667 -26 -169.334 -78 -206.001c-32.667 -23.333 -83.667 -36 -153 -38h-14c-61.333 0 -109 10 -143 30c-60.667 34.667 -91 106 -91 214v155h165v-156c0 -53.333 24.667 -80 74 -80
c50 0 75 26.667 75 80v211z" />
    <glyph glyph-name="questiondown" unicode="&#xbf;" 
d="M817 1404h-325v325h325v-325zM120 345c0 166 66.333 314.999 199 446.999s199 247 199 345v45h283v-69c0 -163.333 -66.333 -310.666 -199 -441.999s-199 -242.333 -199 -333v-190c0 -88.667 40.667 -133 122 -133h2c82 0 123 44.333 123 133v263h283v-263
c0 -275.333 -135.667 -413 -407 -413c-270.667 0 -406 137.667 -406 413v197z" />
    <glyph glyph-name="Agrave" unicode="&#xc0;" horiz-adv-x="1091" 
d="M939 696l92 -696h-286l-55 416h-289l-56 -416h-285l92 693l200 1269h388zM653 696l-108 816l-108 -816h216zM215 2291h222l142 -253h-157z" />
    <glyph glyph-name="Aacute" unicode="&#xc1;" horiz-adv-x="1091" 
d="M939 696l92 -696h-286l-55 416h-289l-56 -416h-285l92 693l200 1269h388zM653 696l-108 816l-108 -816h216zM537 2038h-157l142 253h222z" />
    <glyph glyph-name="Acircumflex" unicode="&#xc2;" horiz-adv-x="1091" 
d="M939 696l92 -696h-286l-55 416h-289l-56 -416h-285l92 693l200 1269h388zM653 696l-108 816l-108 -816h216zM198 2039l214 252h264l218 -252h-214l-136 93l-135 -93h-211z" />
    <glyph glyph-name="Atilde" unicode="&#xc3;" horiz-adv-x="1091" 
d="M939 696l92 -696h-286l-55 416h-289l-56 -416h-285l92 693l200 1269h388zM653 696l-108 816l-108 -816h216zM339 2006l-137 73l35 71c44.667 90 102.667 137 174 141h7c44.667 0 102.334 -22 173.001 -66c34 -21.333 62 -32 84 -32c18.667 0 33 7.66699 43 23l41 67
l130 -86l-41 -68c-42.667 -68 -95.334 -103.667 -158.001 -107h-7c-44.667 0 -101.667 22 -171 66c-44 27.333 -70.333 41.666 -79 43h-4c-18.667 0 -37 -18 -55 -54z" />
    <glyph glyph-name="Adieresis" unicode="&#xc4;" horiz-adv-x="1091" 
d="M939 696l92 -696h-286l-55 416h-289l-56 -416h-285l92 693l200 1269h388zM653 696l-108 816l-108 -816h216zM226 2281h242v-242h-242v242zM622 2281h243v-242h-243v242z" />
    <glyph glyph-name="Aring" unicode="&#xc5;" horiz-adv-x="1091" 
d="M653 696l-108 816l-108 -816h216zM545 2174c-53.333 0 -80 -26.667 -80 -80c0 -54 26.667 -81 80 -81c54 0 81 27 81 81c0 53.333 -27 80 -81 80zM709 1962h31l199 -1266l92 -696h-286l-55 416h-289l-56 -416h-285l92 693l200 1269h30c-23.333 32 -35 76 -35 132
c0 132 66 198 198 198c132.667 0 199 -66 199 -198c0 -56 -11.667 -100 -35 -132z" />
    <glyph glyph-name="AE" unicode="&#xc6;" horiz-adv-x="1478" 
d="M551 416h-150l-56 -416h-285l92 693l200 1269h933v-279h-451v-562h388v-280h-388v-562h451v-279h-734v416zM551 696v771l-6 45l-108 -816h114z" />
    <glyph glyph-name="Ccedilla" unicode="&#xc7;" horiz-adv-x="1043" 
d="M456 -29c-224 22.667 -336.001 159.331 -336.001 409.998v1200c0 274.667 135.333 412 406 412c271.333 0 407 -137.333 407 -412v-264h-283v264c0 88 -41 132.333 -123 133h-2c-81.333 0 -122 -44.333 -122 -133v-1200c0 -88.667 41 -133 123 -133
c82.667 0 124 44.333 124 133v264h283v-264c0 -259.333 -120.667 -396.666 -362 -411.999l-20 -55c24.667 13.333 47.667 20 69 20c20.667 0 40 -6.66699 58 -20c18.667 -13.333 28 -36.666 28 -69.999v-99c0 -56.667 -34.667 -87.667 -104 -93
c-9.33301 -1.33301 -20.666 -2 -33.999 -2c-6 0 -12.667 0.333008 -20 1c-78.667 2 -118 33.333 -118 94v29h118v-29c0 -10 6.66699 -15 20 -15s20 5 20 15v99c0 11.333 -6.33301 17.333 -19 18h-1c-11.333 0 -19.333 -5.66699 -24 -17h-114z" />
    <glyph glyph-name="Egrave" unicode="&#xc8;" horiz-adv-x="944" 
d="M130 1962h734v-279h-451v-562h388v-280h-388v-562h451v-279h-734v1962zM166 2291h222l142 -253h-157z" />
    <glyph glyph-name="Eacute" unicode="&#xc9;" horiz-adv-x="944" 
d="M130 1962h734v-279h-451v-562h388v-280h-388v-562h451v-279h-734v1962zM489 2038h-157l142 253h222z" />
    <glyph glyph-name="Ecircumflex" unicode="&#xca;" horiz-adv-x="944" 
d="M108 1962h734v-279h-451v-562h388v-280h-388v-562h451v-279h-734v1962zM127 2039l214 252h264l218 -252h-214l-136 93l-135 -93h-211z" />
    <glyph glyph-name="Edieresis" unicode="&#xcb;" horiz-adv-x="944" 
d="M130 1962h734v-279h-451v-562h388v-280h-388v-562h451v-279h-734v1962zM178 2281h242v-242h-242v242zM574 2281h243v-242h-243v242z" />
    <glyph glyph-name="Igrave" unicode="&#xcc;" horiz-adv-x="553" 
d="M135 1962h283v-1962h-283v1962zM-54 2291h222l142 -253h-157z" />
    <glyph glyph-name="Iacute" unicode="&#xcd;" horiz-adv-x="553" 
d="M135 1962h283v-1962h-283v1962zM268 2038h-157l142 253h222z" />
    <glyph glyph-name="Icircumflex" unicode="&#xce;" horiz-adv-x="553" 
d="M95 1962h283v-1962h-283v1962zM-112 2039l214 252h264l218 -252h-214l-136 93l-135 -93h-211z" />
    <glyph glyph-name="Idieresis" unicode="&#xcf;" horiz-adv-x="553" 
d="M135 1962h283v-1962h-283v1962zM-43 2281h242v-242h-242v242zM353 2281h243v-242h-243v242z" />
    <glyph glyph-name="Eth" unicode="&#xd0;" horiz-adv-x="1115" 
d="M465 876v-597h124c82 0 123 44.333 123 133v1137c0 89.333 -41 134 -123 134h-124v-596h98v-211h-98zM182 1087v875l436 -1c251.333 0 377 -137.333 377 -412v-1137c0 -274 -125.667 -411 -377 -411c-4 0 -10 -0.333008 -18 -1h-418v876h-124v211h124z" />
    <glyph glyph-name="Ntilde" unicode="&#xd1;" horiz-adv-x="1073" 
d="M130 1962h283l268 -1138v1138h262v-1962h-283l-258 1102v-1102h-272v1962zM330 2006l-137 73l35 71c44.667 90 102.667 137 174 141h7c44.667 0 102.334 -22 173.001 -66c34 -21.333 62 -32 84 -32c18.667 0 33 7.66699 43 23l41 67l130 -86l-41 -68
c-42.667 -68 -95.334 -103.667 -158.001 -107h-7c-44.667 0 -101.667 22 -171 66c-44 27.333 -70.333 41.666 -79 43h-4c-18.667 0 -37 -18 -55 -54z" />
    <glyph glyph-name="Ograve" unicode="&#xd2;" 
d="M933 381c0 -274.667 -135.667 -412.333 -407 -413c-270.667 0 -406 137.667 -406 413v1200c0 274.667 135.333 412 406 412c271.333 0 407 -137.333 407 -412v-1200zM650 1581c0 88 -41 132.333 -123 133h-2c-81.333 0 -122 -44.333 -122 -133v-1200
c0 -88.667 41 -133 123 -133c82.667 0 124 44.333 124 133v1200zM196 2291h222l142 -253h-157z" />
    <glyph glyph-name="Oacute" unicode="&#xd3;" 
d="M933 381c0 -274.667 -135.667 -412.333 -407 -413c-270.667 0 -406 137.667 -406 413v1200c0 274.667 135.333 412 406 412c271.333 0 407 -137.333 407 -412v-1200zM650 1581c0 88 -41 132.333 -123 133h-2c-81.333 0 -122 -44.333 -122 -133v-1200
c0 -88.667 41 -133 123 -133c82.667 0 124 44.333 124 133v1200zM518 2038h-157l142 253h222z" />
    <glyph glyph-name="Ocircumflex" unicode="&#xd4;" 
d="M933 381c0 -274.667 -135.667 -412.333 -407 -413c-270.667 0 -406 137.667 -406 413v1200c0 274.667 135.333 412 406 412c271.333 0 407 -137.333 407 -412v-1200zM650 1581c0 88 -41 132.333 -123 133h-2c-81.333 0 -122 -44.333 -122 -133v-1200
c0 -88.667 41 -133 123 -133c82.667 0 124 44.333 124 133v1200zM179 2039l214 252h264l218 -252h-214l-136 93l-135 -93h-211z" />
    <glyph glyph-name="Otilde" unicode="&#xd5;" 
d="M933 381c0 -274.667 -135.667 -412.333 -407 -413c-270.667 0 -406 137.667 -406 413v1200c0 274.667 135.333 412 406 412c271.333 0 407 -137.333 407 -412v-1200zM650 1581c0 88 -41 132.333 -123 133h-2c-81.333 0 -122 -44.333 -122 -133v-1200
c0 -88.667 41 -133 123 -133c82.667 0 124 44.333 124 133v1200zM320 2006l-137 73.001l35 71c44.667 90 102.667 137 174 141h7c44.667 0 102.334 -22 173.001 -66c34 -21.333 62 -32 84 -32c18.667 0 33 7.66699 43 23l41 67l130 -86l-41 -68
c-42.667 -68 -95.334 -103.667 -158.001 -107h-7c-44.667 0 -101.667 22 -171 66c-44 27.333 -70.333 41.666 -79 42.999h-4c-18.667 0 -37 -18 -55 -54z" />
    <glyph glyph-name="Odieresis" unicode="&#xd6;" 
d="M933 381c0 -274.667 -135.667 -412.333 -407 -413c-270.667 0 -406 137.667 -406 413v1200c0 274.667 135.333 412 406 412c271.333 0 407 -137.333 407 -412v-1200zM650 1581c0 88 -41 132.333 -123 133h-2c-81.333 0 -122 -44.333 -122 -133v-1200
c0 -88.667 41 -133 123 -133c82.667 0 124 44.333 124 133v1200zM207 2281h242v-242h-242v242zM603 2281h243v-242h-243v242z" />
    <glyph glyph-name="multiply" unicode="&#xd7;" horiz-adv-x="1047" 
d="M524 817l-203 -203l-165 165l204 203l-203 203l164 164l203 -203l203 203l164 -165l-203 -202l203 -203l-164 -164z" />
    <glyph glyph-name="Oslash" unicode="&#xd8;" 
d="M418 303c19.333 -36.667 55.333 -55 108 -55c82.667 0 124 44.333 124 133v878zM403 819l210.001 868c-20.667 18 -49.334 27 -86.001 27h-2c-81.333 0 -122 -44.333 -122 -133v-762zM808.001 1911c83.333 -68 125 -177.999 125 -329.999v-1200
c0 -274.667 -135.667 -412.334 -407 -413.001c-70 0 -130.667 9 -182 27l-49 -201h-140l67 277c-68 68.667 -102 172 -102 310v1200c0 274.667 135.333 412 406 412c58.667 0 110.667 -6.33301 156 -19l31 127h141z" />
    <glyph glyph-name="Ugrave" unicode="&#xd9;" 
d="M933 381c0 -274.667 -135.667 -412.333 -407 -413c-270.667 0 -406 137.667 -406 413v1581h283v-1581c0 -88.667 41 -133 123 -133c82.667 0 124 44.333 124 133v1581h283v-1581zM196 2291h222l142 -253h-157z" />
    <glyph glyph-name="Uacute" unicode="&#xda;" 
d="M933 381c0 -274.667 -135.667 -412.333 -407 -413c-270.667 0 -406 137.667 -406 413v1581h283v-1581c0 -88.667 41 -133 123 -133c82.667 0 124 44.333 124 133v1581h283v-1581zM518 2038h-157l142 253h222z" />
    <glyph glyph-name="Ucircumflex" unicode="&#xdb;" 
d="M933 381c0 -274.667 -135.667 -412.333 -407 -413c-270.667 0 -406 137.667 -406 413v1581h283v-1581c0 -88.667 41 -133 123 -133c82.667 0 124 44.333 124 133v1581h283v-1581zM179 2039l214 252h264l218 -252h-214l-136 93l-135 -93h-211z" />
    <glyph glyph-name="Udieresis" unicode="&#xdc;" 
d="M933 381c0 -274.667 -135.667 -412.333 -407 -413c-270.667 0 -406 137.667 -406 413v1581h283v-1581c0 -88.667 41 -133 123 -133c82.667 0 124 44.333 124 133v1581h283v-1581zM207 2281h242v-242h-242v242zM603 2281h243v-242h-243v242z" />
    <glyph glyph-name="Yacute" unicode="&#xdd;" horiz-adv-x="1106" 
d="M360 1962l193 -765l193 765h300l-343 -1113l-8 -24v-825h-283v825l-9 24l-343 1113h300zM545 2038h-157l142 253h222z" />
    <glyph glyph-name="Thorn" unicode="&#xde;" horiz-adv-x="1018" 
d="M413 1635l92 0.000976562c4 0 10 -0.333008 18 -1h19c250.667 0 376 -137.333 376 -412v-295c0 -202.667 -90 -333.334 -270 -392.001c-44 -14 -107.333 -21 -190 -21h-45v-841h-283v2289h283v-327zM413 1356l0.000976562 -563.001h64c39.333 0 66.666 3 81.999 9
c50.667 20.667 76 62.334 76 125.001v295c0 89.333 -41 134 -123 134h-99z" />
    <glyph glyph-name="germandbls" unicode="&#xdf;" 
d="M943 1254c0 -128.667 -52.001 -219.668 -156.001 -273.001c104 -52.667 156 -143.667 156 -273v-508c0 -274 -125.667 -411 -377 -411l-28 -1v279c81.333 0 122 44.333 122 133v508c0 62.667 -25.667 104.334 -77 125.001c-15.333 6 -42.666 9 -81.999 9h-88v-842h-283
v1550c0 274.667 135.333 412 406 412c271.333 0 407 -137.333 407 -412v-296zM412.999 1121h88.001c39.333 0 66.666 3 81.999 9c51.333 20 77 61.333 77 124v296c0 88 -41 132.333 -123 133h-2c-81.333 0 -122 -44.333 -122 -133v-429z" />
    <glyph glyph-name="agrave" unicode="&#xe0;" horiz-adv-x="1091" 
d="M939 615l92 -615h-286l-55 368h-289l-56 -368h-285l92 613l200 1121h388zM653 615l-108 722l-108 -722h216zM215 2058h222l142 -253h-157z" />
    <glyph glyph-name="aacute" unicode="&#xe1;" horiz-adv-x="1091" 
d="M939 615l92 -615h-286l-55 368h-289l-56 -368h-285l92 613l200 1121h388zM653 615l-108 722l-108 -722h216zM537 1805h-157l142 253h222z" />
    <glyph glyph-name="acircumflex" unicode="&#xe2;" horiz-adv-x="1091" 
d="M939 615l92 -615h-286l-55 368h-289l-56 -368h-285l92 613l200 1121h388zM653 615l-108 722l-108 -722h216zM198 1806l214 252h264l218 -252h-214l-136 93l-135 -93h-211z" />
    <glyph glyph-name="atilde" unicode="&#xe3;" horiz-adv-x="1091" 
d="M939 615l92 -615h-286l-55 368h-289l-56 -368h-285l92 613l200 1121h388zM653 615l-108 722l-108 -722h216zM339 1773l-137 73.001l35 71c44.667 90 102.667 137 174 141h7c44.667 0 102.334 -22 173.001 -66c34 -21.333 62 -32 84 -32c18.667 0 33 7.66699 43 23l41 67
l130 -86l-41 -68c-42.667 -68 -95.334 -103.667 -158.001 -107h-7c-44.667 0 -101.667 22 -171 66c-44 27.333 -70.333 41.666 -79 42.999h-4c-18.667 0 -37 -18 -55 -54z" />
    <glyph glyph-name="adieresis" unicode="&#xe4;" horiz-adv-x="1091" 
d="M939 615l92 -615h-286l-55 368h-289l-56 -368h-285l92 613l200 1121h388zM653 615l-108 722l-108 -722h216zM226 2048h242v-242h-242v242zM622 2048h243v-242h-243v242z" />
    <glyph glyph-name="aring" unicode="&#xe5;" horiz-adv-x="1091" 
d="M653 614l-108 718l-108 -718h216zM545 1941c-53.333 0 -80 -26.667 -80 -80c0 -54 26.667 -81 80 -81c54 0 81 27 81 81c0 53.333 -27 80 -81 80zM709 1729h31l199 -1115l92 -614h-286l-55 368h-289l-56 -368h-285l92 611l200 1118h30c-23.333 32 -35 76 -35 132
c0 132 66 198 198 198c132.667 0 199 -66 199 -198c0 -56 -11.667 -100 -35 -132z" />
    <glyph glyph-name="ae" unicode="&#xe6;" horiz-adv-x="1568" 
d="M552 368h-151l-56 -368h-285l92 611l200 1118h934v-246h-451v-495h388v-246h-388v-496h451v-246h-734v368zM552 614v671l-7 47l-108 -718h115z" />
    <glyph glyph-name="ccedilla" unicode="&#xe7;" horiz-adv-x="1043" 
d="M417 -19c-198 30 -296.999 148.332 -296.999 354.999v1057c0 242.667 135.333 364 406 364c271.333 0 407 -121.333 407 -364v-232h-283v232c0 78 -41 117.333 -123 118c-82.667 0 -124 -39.333 -124 -118v-1057c0 -78 41 -117 123 -117c82.667 0 124 39 124 117v233h283
v-233c0 -240 -133.667 -361 -401 -363l-21 -59c24.667 13.333 47.667 20 69 20c20.667 0 39.667 -6.66699 57 -20c18.667 -13.333 28 -36.666 28 -69.999v-99c0 -56.667 -34.333 -87.667 -103 -93c-10 -1.33301 -21.333 -2 -34 -2c-6.66699 0 -13.334 0.333008 -20.001 1
c-79.333 2 -119 33.333 -119 94v29h118v-29c0 -10 6.66699 -15 20 -15s20 5 20 15v99c0 11.333 -6 17.333 -18 18h-2c-11.333 0 -19.333 -5.66699 -24 -17h-113z" />
    <glyph glyph-name="egrave" unicode="&#xe8;" horiz-adv-x="924" 
d="M130 1734h734v-246h-451v-497h388v-248h-388v-496h451v-247h-734v1734zM166 2058h222l142 -253h-157z" />
    <glyph glyph-name="eacute" unicode="&#xe9;" horiz-adv-x="924" 
d="M130 1734h734v-246h-451v-497h388v-248h-388v-496h451v-247h-734v1734zM489 1805h-157l142 253h222z" />
    <glyph glyph-name="ecircumflex" unicode="&#xea;" horiz-adv-x="924" 
d="M108 1734h734v-246h-451v-497h388v-248h-388v-496h451v-247h-734v1734zM127 1806l214 252h264l218 -252h-214l-136 93l-135 -93h-211z" />
    <glyph glyph-name="edieresis" unicode="&#xeb;" horiz-adv-x="924" 
d="M130 1734h734v-246h-451v-497h388v-248h-388v-496h451v-247h-734v1734zM178 2048h242v-242h-242v242zM574 2048h243v-242h-243v242z" />
    <glyph glyph-name="igrave" unicode="&#xec;" horiz-adv-x="514" 
d="M135 1729h283v-1729h-283v1729zM-54 2058h222l142 -253h-157z" />
    <glyph glyph-name="iacute" unicode="&#xed;" horiz-adv-x="514" 
d="M135 1729h283v-1729h-283v1729zM268 1805h-157l142 253h222z" />
    <glyph glyph-name="icircumflex" unicode="&#xee;" horiz-adv-x="514" 
d="M95 1729h283v-1729h-283v1729zM-112 1806l214 252h264l218 -252h-214l-136 93l-135 -93h-211z" />
    <glyph glyph-name="idieresis" unicode="&#xef;" horiz-adv-x="514" 
d="M135 1729h283v-1729h-283v1729zM-43 2048h242v-242h-242v242zM353 2048h243v-242h-243v242z" />
    <glyph glyph-name="eth" unicode="&#xf0;" 
d="M339 1329l-138 164.001l200 168c-40.667 25.333 -99 52.666 -175 81.999l69 222c135.333 -40 238.333 -84.667 309 -134l167 140l137 -164l-149 -125c116 -154 174 -364 174 -630v-639c0 -275.333 -135.333 -413 -406 -413c-271.333 0 -407 137.667 -407 413v365
c0 261.333 117 392 351 392c70 0 129.667 -19.667 179 -59c0 165.333 -32 298.333 -96 399zM403 413.001c0 -88.667 41.332 -133 123.999 -133c82 0 123 44.333 123 133v365c0 86 -33 130.333 -99 133c-10 0.666992 -19.333 1 -28 1c-35.333 0 -60.666 -3.33301 -75.999 -10
c-29.333 -12.667 -44 -54 -44 -124v-365z" />
    <glyph glyph-name="ntilde" unicode="&#xf1;" horiz-adv-x="1073" 
d="M130 1734h283l268 -1006v1006h262v-1734h-283l-258 974v-974h-272v1734zM330 1773l-137 73.001l35 71c44.667 90 102.667 137 174 141h7c44.667 0 102.334 -22 173.001 -66c34 -21.333 62 -32 84 -32c18.667 0 33 7.66699 43 23l41 67l130 -86l-41 -68
c-42.667 -68 -95.334 -103.667 -158.001 -107h-7c-44.667 0 -101.667 22 -171 66c-44 27.333 -70.333 41.666 -79 42.999h-4c-18.667 0 -37 -18 -55 -54z" />
    <glyph glyph-name="ograve" unicode="&#xf2;" 
d="M933 333c0 -242.667 -135.667 -364.333 -407 -365c-270.667 0 -406 121.667 -406 365v1061c0 242.667 135.333 364 406 364c271.333 0 407 -121.333 407 -364v-1061zM650 1394c0 78 -41 117 -123 117h-2c-81.333 0 -122 -39 -122 -117v-1061c0 -78 41 -117 123 -117
c82.667 0 124 39 124 117v1061zM196 2058h222l142 -253h-157z" />
    <glyph glyph-name="oacute" unicode="&#xf3;" 
d="M933 333c0 -242.667 -135.667 -364.333 -407 -365c-270.667 0 -406 121.667 -406 365v1061c0 242.667 135.333 364 406 364c271.333 0 407 -121.333 407 -364v-1061zM650 1394c0 78 -41 117 -123 117h-2c-81.333 0 -122 -39 -122 -117v-1061c0 -78 41 -117 123 -117
c82.667 0 124 39 124 117v1061zM518 1805h-157l142 253h222z" />
    <glyph glyph-name="ocircumflex" unicode="&#xf4;" 
d="M933 333c0 -242.667 -135.667 -364.333 -407 -365c-270.667 0 -406 121.667 -406 365v1061c0 242.667 135.333 364 406 364c271.333 0 407 -121.333 407 -364v-1061zM650 1394c0 78 -41 117 -123 117h-2c-81.333 0 -122 -39 -122 -117v-1061c0 -78 41 -117 123 -117
c82.667 0 124 39 124 117v1061zM179 1806l214 252h264l218 -252h-214l-136 93l-135 -93h-211z" />
    <glyph glyph-name="otilde" unicode="&#xf5;" 
d="M933 333c0 -242.667 -135.667 -364.333 -407 -365c-270.667 0 -406 121.667 -406 365v1061c0 242.667 135.333 364 406 364c271.333 0 407 -121.333 407 -364v-1061zM650 1394c0 78 -41 117 -123 117h-2c-81.333 0 -122 -39 -122 -117v-1061c0 -78 41 -117 123 -117
c82.667 0 124 39 124 117v1061zM320 1773l-137 73.001l35 71c44.667 90 102.667 137 174 141h7c44.667 0 102.334 -22 173.001 -66c34 -21.333 62 -32 84 -32c18.667 0 33 7.66699 43 23l41 67l130 -86l-41 -68c-42.667 -68 -95.334 -103.667 -158.001 -107h-7
c-44.667 0 -101.667 22 -171 66c-44 27.333 -70.333 41.666 -79 42.999h-4c-18.667 0 -37 -18 -55 -54z" />
    <glyph glyph-name="odieresis" unicode="&#xf6;" 
d="M933 333c0 -242.667 -135.667 -364.333 -407 -365c-270.667 0 -406 121.667 -406 365v1061c0 242.667 135.333 364 406 364c271.333 0 407 -121.333 407 -364v-1061zM650 1394c0 78 -41 117 -123 117h-2c-81.333 0 -122 -39 -122 -117v-1061c0 -78 41 -117 123 -117
c82.667 0 124 39 124 117v1061zM207 2048h242v-242h-242v242zM603 2048h243v-242h-243v242z" />
    <glyph glyph-name="divide" unicode="&#xf7;" horiz-adv-x="1045" 
d="M925 1100v-234h-805v234h805zM360 1648h324v-324h-324v324zM360 644h324v-325h-324v325z" />
    <glyph glyph-name="oslash" unicode="&#xf8;" 
d="M434 248c20.667 -19.333 51.333 -29 92 -29c82.667 0 124 39 124 117v619zM402.999 612l246 805c-8 62 -48.667 93.333 -122 94c-82.667 0 -124 -39.333 -124 -118v-781zM858.999 1638c49.333 -59.333 74 -141 74 -245v-1057c0 -242 -135.667 -363 -407 -363
c-64 0 -120.667 6.66699 -170 20l-98 -320l-139 9l114 372c-75.333 60.667 -113 154.667 -113 282v1057c0 242.667 135.333 364 406 364c85.333 0 157.333 -12 216 -36l70 231l140 -9z" />
    <glyph glyph-name="ugrave" unicode="&#xf9;" 
d="M933 333c0 -242.667 -135.667 -364.333 -407 -365c-270.667 0 -406 121.667 -406 365v1398h283v-1398c0 -78 41 -117 123 -117c82.667 0 124 39 124 117v1398h283v-1398zM196 2058h222l142 -253h-157z" />
    <glyph glyph-name="uacute" unicode="&#xfa;" 
d="M933 333c0 -242.667 -135.667 -364.333 -407 -365c-270.667 0 -406 121.667 -406 365v1398h283v-1398c0 -78 41 -117 123 -117c82.667 0 124 39 124 117v1398h283v-1398zM518 1805h-157l142 253h222z" />
    <glyph glyph-name="ucircumflex" unicode="&#xfb;" 
d="M933 333c0 -242.667 -135.667 -364.333 -407 -365c-270.667 0 -406 121.667 -406 365v1398h283v-1398c0 -78 41 -117 123 -117c82.667 0 124 39 124 117v1398h283v-1398zM179 1806l214 252h264l218 -252h-214l-136 93l-135 -93h-211z" />
    <glyph glyph-name="udieresis" unicode="&#xfc;" 
d="M933 333c0 -242.667 -135.667 -364.333 -407 -365c-270.667 0 -406 121.667 -406 365v1398h283v-1398c0 -78 41 -117 123 -117c82.667 0 124 39 124 117v1398h283v-1398zM207 2048h242v-242h-242v242zM603 2048h243v-242h-243v242z" />
    <glyph glyph-name="yacute" unicode="&#xfd;" horiz-adv-x="1106" 
d="M360 1734l193 -676l193 676h300l-343 -983l-8 -22v-729h-283v729l-9 22l-343 983h300zM545 1805h-157l142 253h222z" />
    <glyph glyph-name="thorn" unicode="&#xfe;" horiz-adv-x="1010" 
d="M413 1635l92 0.000976562c4 0 10 -0.333008 18 -1h19c250.667 0 376 -137.333 376 -412v-295c0 -202.667 -90 -333.334 -270 -392.001c-44 -14 -107.333 -21 -190 -21h-45v-841h-283v2289h283v-327zM413 1356l0.000976562 -563.001h64c39.333 0 66.666 3 81.999 9
c50.667 20.667 76 62.334 76 125.001v295c0 89.333 -41 134 -123 134h-99z" />
    <glyph glyph-name="ydieresis" unicode="&#xff;" horiz-adv-x="1106" 
d="M360 1734l193 -676l193 676h300l-343 -983l-8 -22v-729h-283v729l-9 22l-343 983h300zM234 2048h242v-242h-242v242zM630 2048h243v-242h-243v242z" />
    <glyph glyph-name="dotlessi" unicode="&#x131;" horiz-adv-x="514" 
d="M135 1729h283v-1729h-283v1729z" />
    <glyph glyph-name="OE" unicode="&#x152;" horiz-adv-x="1370" 
d="M710 0c-54 -21.333 -118.667 -32 -194 -32c-270.667 0 -406 137.667 -406 413v1200c0 274.667 135.333 412 406 412c74.667 0 139 -10.333 193 -31h651v-279h-444c4.66699 -31.333 7 -65.333 7 -102v-460h374v-280h-374v-460c0 -36.667 -2.33301 -70.667 -7 -102h444
v-279h-650zM626 307l-0.000976562 1348c-18 38.667 -54.333 58.334 -109 59.001h-2c-81.333 0 -122 -44.333 -122 -133v-1200c0 -88.667 41 -133 123 -133c54.667 0 91.334 19.667 110.001 59z" />
    <glyph glyph-name="oe" unicode="&#x153;" horiz-adv-x="1590" 
d="M720 0c-56 -21.333 -124 -32 -204 -32c-270.667 0 -406 121.667 -406 365v1061c0 242.667 135.333 364 406 364c70 0 130.667 -8 182 -24h676v-246h-451v-497h388v-248h-388v-496h451v-247h-654zM640 1394c0 78 -41 117 -123 117h-2c-81.333 0 -122 -39 -122 -117v-1061
c0 -78 41 -117 123 -117c82.667 0 124 39 124 117v1061z" />
    <glyph glyph-name="circumflex" unicode="&#x2c6;" horiz-adv-x="956" 
d="M130 1806l214 252h264l218 -252h-214l-136 93l-135 -93h-211z" />
    <glyph glyph-name="caron" unicode="&#x2c7;" horiz-adv-x="956" 
d="M341 2058l135 -93l136 93h214l-218 -252h-264l-214 252h211z" />
    <glyph glyph-name="uni02C9" unicode="&#x2c9;" horiz-adv-x="899" 
d="M130 1990h639v-185h-639v185z" />
    <glyph glyph-name="breve" unicode="&#x2d8;" horiz-adv-x="1026" 
d="M896 2055c-84 -178.667 -215.667 -267.999 -395 -267.999h-3c-181.333 1.33301 -304 90.666 -368 267.999h214c20.667 -72 76.667 -108 168 -108h1c92.667 0 149 36 169 108h214z" />
    <glyph glyph-name="dotaccent" unicode="&#x2d9;" horiz-adv-x="503" 
d="M130 2053h243v-242h-243v242z" />
    <glyph glyph-name="ring" unicode="&#x2da;" horiz-adv-x="657" 
d="M527 1861c0 -132.667 -66.333 -199 -199 -199c-132 0 -198 66.333 -198 199c0 132 66 198 198 198c132.667 0 199 -66 199 -198zM328 1941c-53.333 0 -80 -26.667 -80 -80c0 -54 26.667 -81 80 -81c54 0 81 27 81 81c0 53.333 -27 80 -81 80z" />
    <glyph glyph-name="tilde" unicode="&#x2dc;" horiz-adv-x="947" 
d="M267 1773l-137 73.001l35 71c44.667 90 102.667 137 174 141h7c44.667 0 102.334 -22 173.001 -66c34 -21.333 62 -32 84 -32c18.667 0 33 7.66699 43 23l41 67l130 -86l-41 -68c-42.667 -68 -95.334 -103.667 -158.001 -107h-7c-44.667 0 -101.667 22 -171 66
c-44 27.333 -70.333 41.666 -79 42.999h-4c-18.667 0 -37 -18 -55 -54z" />
    <glyph glyph-name="hungarumlaut" unicode="&#x2dd;" horiz-adv-x="1024" 
d="M157 1805h-157l142 253h222zM521 1805h-157l142 253h222z" />
    <glyph glyph-name="endash" unicode="&#x2013;" horiz-adv-x="1172" 
d="M50 841v233h1060v-233h-1060z" />
    <glyph glyph-name="emdash" unicode="&#x2014;" horiz-adv-x="2048" 
d="M50 841v233h1963v-233h-1963z" />
    <glyph glyph-name="quoteleft" unicode="&#x2018;" horiz-adv-x="557" 
d="M480 1311h-350v288l107 364h184l-58 -327h117v-325z" />
    <glyph glyph-name="quoteright" unicode="&#x2019;" horiz-adv-x="610" 
d="M130 1963h350v-288l-107 -364h-184l58 327h-117v325z" />
    <glyph glyph-name="quotesinglbase" unicode="&#x201a;" horiz-adv-x="557" 
d="M120 325h351v-287l-108 -365h-183l58 327h-118v325z" />
    <glyph glyph-name="quotedblleft" unicode="&#x201c;" horiz-adv-x="1047" 
d="M480 1311h-350v288l107 364h184l-58 -327h117v-325zM970 1311h-350v288l107 364h184l-58 -327h117v-325z" />
    <glyph glyph-name="quotedblright" unicode="&#x201d;" horiz-adv-x="1100" 
d="M130 1963h350v-288l-107 -364h-184l58 327h-117v325zM620 1963h350v-288l-107 -364h-184l58 327h-117v325z" />
    <glyph glyph-name="quotedblbase" unicode="&#x201e;" horiz-adv-x="1100" 
d="M130 326h350v-288l-107 -364h-184l58 327h-117v325zM620 326h350v-288l-107 -364h-184l58 327h-117v325z" />
    <glyph glyph-name="dagger" unicode="&#x2020;" horiz-adv-x="1454" 
d="M810 1451l399 54.001c8.66699 1.33301 17 2 25 2c60 0 90 -47 90 -141c0 -95.333 -32.667 -143 -98 -143c-8 0 -16 0.666992 -24 2l-387 56c18 -138.667 27 -308 27 -508v-160c0 -198.667 8.66699 -364.334 26 -497.001c1.33301 -8.66699 2 -17 2 -25
c0 -60 -46.667 -90.333 -140 -91c-96 -0 -144 33.333 -144 100c0 6.66699 0.666992 14 2 22c18.667 125.333 28 280.333 28 465c0 34 -0.333008 68.667 -1 104c-0.666992 28.667 -1 57 -1 85c0 194.667 10.333 361.667 31 501l-399 -54c-8.66699 -1.33301 -17 -2 -25 -2
c-60 0 -90.333 47 -91 141c0 95.333 32.667 143 98 143c8 0 16 -0.666992 24 -2l388 -57l-53 399c-2 9.33301 -3 18 -3 26c0 60 47 90 141 90c95.333 0 143 -32.667 143 -98c0 -8 -0.666992 -16 -2 -24z" />
    <glyph glyph-name="daggerdbl" unicode="&#x2021;" horiz-adv-x="1454" 
d="M866 1839c-24.667 -169.333 -37.001 -280.001 -37.001 -332.001c0 -19.333 1.66699 -30.666 5 -33.999c2.66699 -2.66699 12.667 -4 30 -4c50.667 0 165.334 12 344.001 36c8.66699 1.33301 17 2 25 2c60 0 90.333 -47 91 -141c0 -95.333 -32.667 -143 -98 -143
c-8 0 -16 0.666992 -24 2l-388 56l16 -118c24.667 -19.333 37 -43.666 37 -72.999c0 -5.33301 -0.333008 -11 -1 -17c-4 -27.333 -6 -56.333 -6 -87c0 -33.333 2.33301 -68 7 -104c1.33301 -6.66699 2 -13 2 -19c0 -30 -14.667 -54 -44 -72l-16 -106l399 53
c8.66699 1.33301 17 2 25 2c60 0 90.333 -46.667 91 -140c0 -96 -33.333 -144 -100 -144c-6.66699 0 -14 0.666992 -22 2l-388 57l53 -399c1.33301 -8.66699 2 -17 2 -25c0 -60 -46.667 -90.333 -140 -91c-96 0 -144 33.333 -144 100c0 6.66699 0.666992 14 2 22l57 388
l-399 -53c-9.33301 -2 -18 -3 -26 -3c-59.333 0 -89 47 -89 141c0 95.333 32.667 143 98 143c7.33301 0 15 -0.666992 23 -2l388 -56l-16 118c-24.667 19.333 -37 44 -37 74c0 5.33301 0.333008 11 1 17c4 27.333 6 56 6 86c0 33.333 -2.33301 68 -7 104
c-1.33301 6.66699 -2 13 -2 19c0 30 14.667 54 44 72l16 107l-399 -54c-8.66699 -1.33301 -17 -2 -25 -2c-60 0 -90 47 -90 141c0 95.333 32.667 143 98 143c7.33301 0 15 -0.666992 23 -2l388 -57l-53 399c-1.33301 9.33301 -2 17.666 -2 24.999c0 60.667 46.667 91 140 91
c96 0 144 -33.333 144 -100c0 -6.66699 -0.666992 -14 -2 -22z" />
    <glyph glyph-name="bullet" unicode="&#x2022;" horiz-adv-x="987" 
d="M751 1240c70.667 -70.667 106 -156.334 106 -257.001c0 -100 -35.333 -185.667 -106 -257c-71.333 -70.667 -157.333 -106 -258 -106c-100 0 -185.667 35.333 -257 106c-70.667 71.333 -106 157 -106 257c0 100.667 35.333 186.334 106 257.001
c71.333 71.333 157 107 257 107c100.667 0 186.667 -35.667 258 -107z" />
    <glyph glyph-name="ellipsis" unicode="&#x2026;" horiz-adv-x="2048" 
d="M120 325h325v-325h-325v325zM803 325h325v-325h-325v325zM1486 325h325v-325h-325v325z" />
    <glyph glyph-name="guilsinglleft" unicode="&#x2039;" horiz-adv-x="816" 
d="M686 1179l-224 -190l224 -184v-320l-556 517l556 507v-330z" />
    <glyph glyph-name="guilsinglright" unicode="&#x203a;" horiz-adv-x="816" 
d="M130 1509l556 -507l-556 -517v320l224 184l-224 190v330z" />
    <glyph glyph-name="fraction" unicode="&#x2044;" horiz-adv-x="342" 
d="M615 1963l-722 -1963h-176l723 1963h175z" />
    <glyph glyph-name="fraction" unicode="&#x2215;" horiz-adv-x="342" 
d="M615 1963l-722 -1963h-176l723 1963h175z" />
    <glyph glyph-name="franc" unicode="&#x20a3;" horiz-adv-x="963" 
d="M169 596v1366h734v-279h-451v-562h388v-280h-388v-245h186v-211h-186v-385h-283v385h-119v211h119z" />
    <glyph glyph-name="lira" unicode="&#x20a4;" horiz-adv-x="1125" 
d="M252 1235v346c0 275.333 135.667 413 407 413c270.667 0 406 -137.667 406 -413v-263h-283v263c0 88.667 -41 133 -123 133h-2c-81.333 0 -122 -44.333 -122 -133v-346h332v-159h-332v-158h332v-159h-332v-207c0 -118 -20.667 -209 -62 -273h514v-279h-927v279h69
c82 0 123 44.667 123 134v346h-192v159h192v158h-192v159h192z" />
    <glyph glyph-name="peseta" unicode="&#x20a7;" horiz-adv-x="2175" 
d="M385 1683l0.000976562 -562.001h58c35.333 0 59.666 2.66699 72.999 8c46 20.667 69 62.334 69 125.001v295c0 89.333 -36.667 134 -110 134h-90zM840.001 1483l0.000976562 -229c0 -202.667 -81.333 -333.334 -244 -392.001c-38.667 -14 -95.334 -21 -170.001 -21h-41
v-841h-255v1962l371 -1c169.333 0 275.333 -77.333 318 -232h724v-36c66 42.667 155.667 64 269 64c271.333 0 407 -121.333 407 -364v-232h-283v232c0 78 -41 117.333 -123 118c-82.667 0 -124 -39.333 -124 -118v-156c0 -77.333 88.333 -171.666 265 -282.999
c176.667 -110.667 265 -243.667 265 -399v-219c0 -242 -135.333 -363 -406 -363c-271.333 0 -407 121 -407 363v233h283v-233c0 -78 41.333 -117 124 -117c82 0 123 39 123 117v197c0 84 -88.333 181.667 -265 293s-265 246.333 -265 405v162c0 32 2.33301 62 7 90h-135
v-1483h-283v1483h-155z" />
    <glyph glyph-name="Euro" unicode="&#x20ac;" horiz-adv-x="1094" 
d="M171 1219v362c0 275.333 135.333 413 406 413c271.333 0 407 -137.667 407 -413v-263h-283v263c0 88.667 -41 133 -123 133h-2c-81.333 0 -122 -44.333 -122 -133v-362h382v-158h-382v-160h382v-158h-382v-362c0 -88.667 41 -133 123 -133c82.667 0 124 44.333 124 133
v264h283v-264c0 -274.667 -135.667 -412 -407 -412c-270.667 0 -406 137.333 -406 412v362h-141v158h141v160h-141v158h141z" />
    <glyph glyph-name="afii61352" unicode="&#x2116;" horiz-adv-x="1850" 
d="M130 1962h283l268 -1138v1138h262v-1962h-283l-258 1102v-1102h-272v1962zM1730 1110c0 -145.333 -89.667 -218 -269 -218c-178.667 0 -268 72.667 -268 218v634c0 145.333 89.333 218 268 218c179.333 0 269 -72.667 269 -218v-634zM1543 1744
c0 46.667 -27 70.333 -81 71c-54.667 0 -82 -23.667 -82 -71v-634c0 -47.333 27 -71 81 -71c54.667 0 82 23.667 82 71v634zM1203 505.999v175h516v-175h-516z" />
    <glyph glyph-name="trademark" unicode="&#x2122;" horiz-adv-x="1108" 
d="M426 1729v-112h-119v-673h-128v673h-119v112h366zM756 1192l148 538h128v-785h-122v440l-109 -440h-87l-112 440v-440h-123v785h127z" />
    <glyph glyph-name="partialdiff" unicode="&#x2202;" 
d="M650 1111c0 312 -141.667 522.666 -425 631.999l70 222c425.333 -125.333 638 -429.666 638 -912.999v-639c0 -275.333 -135.667 -413 -407 -413c-270.667 0 -406 137.667 -406 413v365c0 261.333 116.667 392 350 392c70.667 0 130.667 -19.667 180 -59zM403 412.999
c0 -88.667 41.333 -133 124 -133c82 0 123 44.333 123 133v365c0 86 -33.333 130.333 -100 133c-10 0.666992 -19.333 1 -28 1c-34.667 0 -59.667 -3.33301 -75 -10c-29.333 -12.667 -44 -54 -44 -124v-365z" />
    <glyph glyph-name="minus" unicode="&#x2212;" horiz-adv-x="1045" 
d="M925 1100v-234h-805v234h805z" />
    <glyph glyph-name="approxequal" unicode="&#x2248;" horiz-adv-x="1100" 
d="M268 890l-168.001 109l54 83c66 102.667 143.333 154 232 154h10c58.667 -2.66699 133.334 -38 224.001 -106c45.333 -34 82.666 -51 111.999 -51c20.667 0 37.334 8 50.001 24l62 78l156 -124l-62 -78c-60 -76 -128 -114 -204 -114h-12
c-58.667 2.66699 -132.667 37.667 -222 105c-52.667 40 -84.667 61 -96 63c-2.66699 0.666992 -5.66699 1 -9 1c-22.667 0 -47 -20 -73 -60zM267.999 519l-168.001 109l54 83c66 102.667 143.333 154 232 154h10c58.667 -2.66699 133.334 -38 224.001 -106
c45.333 -34 82.666 -51 111.999 -51c20.667 0 37.334 8 50.001 24l62 78l156 -124l-62 -78c-60 -76 -128 -114 -204 -114h-12c-58.667 2.66699 -132.667 37.667 -222 105c-52.667 40 -84.667 61 -96 63c-2.66699 0.666992 -5.66699 1 -9 1c-22.667 0 -47 -20 -73 -60z" />
    <glyph glyph-name="lessequal" unicode="&#x2264;" horiz-adv-x="1047" 
d="M120 1079l807 452v-275l-587 -320l587 -311v-274l-807 437v291zM925 234v-234h-805v234h805z" />
    <glyph glyph-name="greaterequal" unicode="&#x2265;" horiz-adv-x="1047" 
d="M927 788l-807 -437v274l587 311l-587 320v275l807 -452v-291zM925 234v-234h-805v234h805z" />
    <glyph glyph-name="uniF001" unicode="&#xf001;" horiz-adv-x="1472" 
d="M130 1734h734v-246h-451v-497h388v-248h-388v-743h-283v1734zM1059 1734h283v-1734h-283v1734z" />
    <glyph glyph-name="uniF001" unicode="&#xfb01;" horiz-adv-x="1472" 
d="M130 1734h734v-246h-451v-497h388v-248h-388v-743h-283v1734zM1059 1734h283v-1734h-283v1734z" />
    <glyph glyph-name="uniF002" unicode="&#xf002;" horiz-adv-x="1848" 
d="M130 1734h734v-246h-451v-497h388v-248h-388v-743h-283v1734zM1054 0v1734h283v-1487h451v-247h-734z" />
    <glyph glyph-name="uniF002" unicode="&#xfb02;" horiz-adv-x="1848" 
d="M130 1734h734v-246h-451v-497h388v-248h-388v-743h-283v1734zM1054 0v1734h283v-1487h451v-247h-734z" />
    <glyph glyph-name=".null" horiz-adv-x="0" 
 />
    <glyph glyph-name="nonmarkingreturn" horiz-adv-x="508" 
 />
    </font>
</defs>
</svg>
